ISO-10303-21;
HEADER;
FILE_DESCRIPTION (( 'STEP AP214' ),
    '1' );
FILE_NAME ('Pa5100je.STEP',
    '2026-09-14T06:14:10',
    ( '' ),
    ( '' ),
    'SwSTEP 2.0',
    'SolidWorks 2024',
    '' );
FILE_SCHEMA (( 'AUTOMOTIVE_DESIGN' ));
ENDSEC;

DATA;
#1 = CARTESIAN_POINT ( 'NONE',  ( -2.250000000000000444, 2.000000000000000000, -0.4999999999999987232 ) ) ;
#2 = DIRECTION ( 'NONE',  ( 1.000000000000000000, 0.000000000000000000, -1.445602896647339163E-16 ) ) ;
#3 = EDGE_CURVE ( 'NONE', #4, #177, #758, .T. ) ;
#4 = VERTEX_POINT ( 'NONE', #672 ) ;
#5 = CARTESIAN_POINT ( 'NONE',  ( 3.750000000000000000, 4.000000000000000000, -6.499999999999999112 ) ) ;
#6 = CARTESIAN_POINT ( 'NONE',  ( 0.5000000000000006661, 5.000000000000000000, -1.970000000000000417 ) ) ;
#7 = EDGE_CURVE ( 'NONE', #466, #675, #296, .T. ) ;
#8 = VERTEX_POINT ( 'NONE', #75 ) ;
#9 = DIRECTION ( 'NONE',  ( -1.445602896647339163E-16, -0.000000000000000000, -1.000000000000000000 ) ) ;
#10 = LINE ( 'NONE', #292, #137 ) ;
#11 = ORIENTED_EDGE ( 'NONE', *, *, #874, .F. ) ;
#12 = CYLINDRICAL_SURFACE ( 'NONE', #450, 1.899999999999999689 ) ;
#13 = DIRECTION ( 'NONE',  ( 0.000000000000000000, 1.000000000000000000, -0.000000000000000000 ) ) ;
#14 = DIRECTION ( 'NONE',  ( -0.000000000000000000, -1.000000000000000000, -0.000000000000000000 ) ) ;
#15 = ORIENTED_EDGE ( 'NONE', *, *, #3, .F. ) ;
#16 = ORIENTED_EDGE ( 'NONE', *, *, #746, .F. ) ;
#17 = EDGE_CURVE ( 'NONE', #771, #149, #432, .T. ) ;
#18 = DIRECTION ( 'NONE',  ( 0.000000000000000000, 0.000000000000000000, -1.000000000000000000 ) ) ;
#19 = CARTESIAN_POINT ( 'NONE',  ( 0.5000000000000004441, 5.000000000000000000, -5.769999999999999574 ) ) ;
#20 = DIRECTION ( 'NONE',  ( -0.000000000000000000, -1.000000000000000000, -0.000000000000000000 ) ) ;
#21 = EDGE_CURVE ( 'NONE', #453, #294, #364, .T. ) ;
#22 = DIRECTION ( 'NONE',  ( -1.000000000000000000, 0.000000000000000000, -0.000000000000000000 ) ) ;
#23 = ORIENTED_EDGE ( 'NONE', *, *, #590, .F. ) ;
#24 = DIRECTION ( 'NONE',  ( 0.000000000000000000, -0.000000000000000000, 1.000000000000000000 ) ) ;
#25 = DIRECTION ( 'NONE',  ( 0.000000000000000000, -1.000000000000000000, 0.000000000000000000 ) ) ;
#26 = CARTESIAN_POINT ( 'NONE',  ( 11.00000000000000355, 2.000000000000000000, 6.000000000000000000 ) ) ;
#27 = LINE ( 'NONE', #394, #803 ) ;
#28 = ORIENTED_EDGE ( 'NONE', *, *, #737, .T. ) ;
#29 = AXIS2_PLACEMENT_3D ( 'NONE', #775, #397, #924 ) ;
#30 = CARTESIAN_POINT ( 'NONE',  ( -12.00000000000000000, 0.000000000000000000, 5.999999999999995559 ) ) ;
#31 = CIRCLE ( 'NONE', #279, 1.000000000000000888 ) ;
#32 = CARTESIAN_POINT ( 'NONE',  ( -8.999999999999994671, 2.000000000000000000, 10.99999999999999467 ) ) ;
#33 = PLANE ( 'NONE',  #944 ) ;
#34 = DIRECTION ( 'NONE',  ( -0.000000000000000000, -1.000000000000000000, -0.000000000000000000 ) ) ;
#35 = EDGE_LOOP ( 'NONE', ( #348, #307, #311, #509 ) ) ;
#36 = EDGE_CURVE ( 'NONE', #699, #356, #130, .T. ) ;
#37 = DIRECTION ( 'NONE',  ( -0.000000000000000000, -1.000000000000000000, -0.000000000000000000 ) ) ;
#38 = DIRECTION ( 'NONE',  ( 0.000000000000000000, 0.000000000000000000, 1.000000000000000000 ) ) ;
#39 = FACE_OUTER_BOUND ( 'NONE', #122, .T. ) ;
#40 = CARTESIAN_POINT ( 'NONE',  ( -9.299999999999998934, 2.000000000000000000, -9.299999999999997158 ) ) ;
#41 = VERTEX_POINT ( 'NONE', #600 ) ;
#42 = EDGE_CURVE ( 'NONE', #795, #771, #531, .T. ) ;
#43 = DIRECTION ( 'NONE',  ( 0.000000000000000000, 0.000000000000000000, -1.000000000000000000 ) ) ;
#44 = CARTESIAN_POINT ( 'NONE',  ( 7.999999999999996447, 2.000000000000000000, 12.00000000000000000 ) ) ;
#45 = ORIENTED_EDGE ( 'NONE', *, *, #919, .F. ) ;
#46 = SHAPE_DEFINITION_REPRESENTATION ( #584, #942 ) ;
#47 =( LENGTH_UNIT ( ) NAMED_UNIT ( * ) SI_UNIT ( .MILLI., .METRE. ) );
#48 = COLOUR_RGB ( '',0.7921568627450980005, 0.8196078431372548767, 0.9333333333333333481 ) ;
#49 = AXIS2_PLACEMENT_3D ( 'NONE', #217, #898, #514 ) ;
#50 = ORIENTED_EDGE ( 'NONE', *, *, #829, .T. ) ;
#51 = ORIENTED_EDGE ( 'NONE', *, *, #100, .F. ) ;
#52 = DIRECTION ( 'NONE',  ( 1.000000000000000000, -0.000000000000000000, 0.000000000000000000 ) ) ;
#53 = DIRECTION ( 'NONE',  ( 0.000000000000000000, 1.000000000000000000, 0.000000000000000000 ) ) ;
#54 = AXIS2_PLACEMENT_3D ( 'NONE', #78, #966, #214 ) ;
#55 = ORIENTED_EDGE ( 'NONE', *, *, #350, .T. ) ;
#56 = UNCERTAINTY_MEASURE_WITH_UNIT (LENGTH_MEASURE( 1.000000000000000082E-05 ), #47, 'distance_accuracy_value', 'NONE');
#57 = FILL_AREA_STYLE ('',( #121 ) ) ;
#58 = ORIENTED_EDGE ( 'NONE', *, *, #719, .F. ) ;
#59 = DIRECTION ( 'NONE',  ( 0.000000000000000000, 1.000000000000000000, -0.000000000000000000 ) ) ;
#60 = AXIS2_PLACEMENT_3D ( 'NONE', #92, #104, #22 ) ;
#61 = AXIS2_PLACEMENT_3D ( 'NONE', #541, #469, #237 ) ;
#62 = ORIENTED_EDGE ( 'NONE', *, *, #874, .T. ) ;
#63 = LINE ( 'NONE', #5, #662 ) ;
#64 = VERTEX_POINT ( 'NONE', #834 ) ;
#65 = FACE_OUTER_BOUND ( 'NONE', #819, .T. ) ;
#66 = ORIENTED_EDGE ( 'NONE', *, *, #948, .T. ) ;
#67 = CARTESIAN_POINT ( 'NONE',  ( -2.249999999999999556, 4.000000000000000000, -0.4999999999999987232 ) ) ;
#68 = ADVANCED_FACE ( 'NONE', ( #366 ), #427, .F. ) ;
#69 = DIRECTION ( 'NONE',  ( -0.000000000000000000, -1.000000000000000000, -0.000000000000000000 ) ) ;
#70 = VECTOR ( 'NONE', #822, 1000.000000000000000 ) ;
#71 = VECTOR ( 'NONE', #847, 1000.000000000000000 ) ;
#72 = VERTEX_POINT ( 'NONE', #732 ) ;
#73 = AXIS2_PLACEMENT_3D ( 'NONE', #921, #694, #24 ) ;
#74 = CARTESIAN_POINT ( 'NONE',  ( -10.00000000000000178, 2.000000000000000000, 7.000000000000002665 ) ) ;
#75 = CARTESIAN_POINT ( 'NONE',  ( -10.99999999999999289, 2.000000000000000000, -11.99999999999999822 ) ) ;
#76 = ADVANCED_FACE ( 'NONE', ( #899 ), #375, .T. ) ;
#77 = ORIENTED_EDGE ( 'NONE', *, *, #196, .T. ) ;
#78 = CARTESIAN_POINT ( 'NONE',  ( 11.00000000000000355, 2.000000000000000000, 6.000000000000000000 ) ) ;
#79 = ORIENTED_EDGE ( 'NONE', *, *, #506, .T. ) ;
#80 = ORIENTED_EDGE ( 'NONE', *, *, #581, .F. ) ;
#81 = FACE_OUTER_BOUND ( 'NONE', #686, .T. ) ;
#82 = ORIENTED_EDGE ( 'NONE', *, *, #42, .F. ) ;
#83 = FACE_OUTER_BOUND ( 'NONE', #601, .T. ) ;
#84 = CARTESIAN_POINT ( 'NONE',  ( -11.00000000000000178, 2.000000000000000000, 6.000000000000002665 ) ) ;
#85 = EDGE_CURVE ( 'NONE', #64, #771, #830, .T. ) ;
#86 = AXIS2_PLACEMENT_3D ( 'NONE', #730, #59, #422 ) ;
#87 = EDGE_LOOP ( 'NONE', ( #742, #402, #106, #210 ) ) ;
#88 = ADVANCED_FACE ( 'NONE', ( #811 ), #913, .F. ) ;
#89 = CARTESIAN_POINT ( 'NONE',  ( 3.750000000000000888, 4.000000000000000000, -0.4999999999999987232 ) ) ;
#90 = FACE_BOUND ( 'NONE', #260, .T. ) ;
#91 = LINE ( 'NONE', #917, #264 ) ;
#92 = CARTESIAN_POINT ( 'NONE',  ( -10.00000000000000178, 2.000000000000000000, 7.000000000000002665 ) ) ;
#93 = EDGE_LOOP ( 'NONE', ( #285, #460, #194, #842 ) ) ;
#94 = PLANE ( 'NONE',  #228 ) ;
#95 = DIRECTION ( 'NONE',  ( -1.000000000000000000, 0.000000000000000000, -8.673617379884193244E-16 ) ) ;
#96 = FACE_OUTER_BOUND ( 'NONE', #189, .T. ) ;
#97 = PLANE ( 'NONE',  #380 ) ;
#98 = ORIENTED_EDGE ( 'NONE', *, *, #358, .T. ) ;
#99 = CARTESIAN_POINT ( 'NONE',  ( 10.99999999999999467, 0.000000000000000000, 7.000000000000000000 ) ) ;
#100 = EDGE_CURVE ( 'NONE', #612, #64, #10, .T. ) ;
#101 = ORIENTED_EDGE ( 'NONE', *, *, #230, .T. ) ;
#102 = CARTESIAN_POINT ( 'NONE',  ( 9.299999999999998934, 2.000000000000000000, -8.049999999999998934 ) ) ;
#103 = CARTESIAN_POINT ( 'NONE',  ( -8.999999999999994671, 2.000000000000000000, 8.000000000000008882 ) ) ;
#104 = DIRECTION ( 'NONE',  ( 0.000000000000000000, 0.000000000000000000, -1.000000000000000000 ) ) ;
#105 = EDGE_CURVE ( 'NONE', #318, #72, #895, .T. ) ;
#106 = ORIENTED_EDGE ( 'NONE', *, *, #669, .F. ) ;
#107 = CARTESIAN_POINT ( 'NONE',  ( 12.00000000000000000, 2.000000000000000000, -10.99999999999999289 ) ) ;
#108 = ORIENTED_EDGE ( 'NONE', *, *, #161, .F. ) ;
#109 = CIRCLE ( 'NONE', #866, 1.249999999999999334 ) ;
#110 = CARTESIAN_POINT ( 'NONE',  ( -11.00000000000000178, 2.000000000000000000, 6.000000000000002665 ) ) ;
#111 = CARTESIAN_POINT ( 'NONE',  ( -7.999999999999986677, 2.000000000000000000, 12.00000000000000178 ) ) ;
#112 = CARTESIAN_POINT ( 'NONE',  ( 7.999999999999996447, 2.000000000000000000, 12.00000000000000000 ) ) ;
#113 = EDGE_CURVE ( 'NONE', #546, #905, #807, .T. ) ;
#114 = ORIENTED_EDGE ( 'NONE', *, *, #669, .T. ) ;
#115 = CARTESIAN_POINT ( 'NONE',  ( 8.000000000000003553, 2.000000000000000000, 11.00000000000000178 ) ) ;
#116 = DIRECTION ( 'NONE',  ( -1.000000000000000000, 0.000000000000000000, 1.020425574104004985E-16 ) ) ;
#117 = DIRECTION ( 'NONE',  ( 0.000000000000000000, -1.000000000000000000, 0.000000000000000000 ) ) ;
#118 = CIRCLE ( 'NONE', #152, 1.249999999999999334 ) ;
#119 = ORIENTED_EDGE ( 'NONE', *, *, #518, .F. ) ;
#120 =( NAMED_UNIT ( * ) SI_UNIT ( $, .STERADIAN. ) SOLID_ANGLE_UNIT ( ) );
#121 = FILL_AREA_STYLE_COLOUR ( '', #48 ) ;
#122 = EDGE_LOOP ( 'NONE', ( #687, #705, #11, #226 ) ) ;
#123 = VERTEX_POINT ( 'NONE', #251 ) ;
#124 = EDGE_CURVE ( 'NONE', #963, #490, #193, .T. ) ;
#125 = DIRECTION ( 'NONE',  ( -0.000000000000000000, -1.000000000000000000, -0.000000000000000000 ) ) ;
#126 = VECTOR ( 'NONE', #470, 1000.000000000000000 ) ;
#127 = EDGE_LOOP ( 'NONE', ( #407, #726, #539, #823 ) ) ;
#128 = DIRECTION ( 'NONE',  ( 0.000000000000000000, 1.000000000000000000, -0.000000000000000000 ) ) ;
#129 = DIRECTION ( 'NONE',  ( -0.000000000000000000, -0.000000000000000000, 1.000000000000000000 ) ) ;
#130 = LINE ( 'NONE', #6, #703 ) ;
#131 = DIRECTION ( 'NONE',  ( 1.000000000000000000, 0.000000000000000000, 0.000000000000000000 ) ) ;
#132 = DIRECTION ( 'NONE',  ( -0.000000000000000000, -1.000000000000000000, -0.000000000000000000 ) ) ;
#133 = ADVANCED_FACE ( 'NONE', ( #769 ), #411, .T. ) ;
#134 = VERTEX_POINT ( 'NONE', #330 ) ;
#135 = ORIENTED_EDGE ( 'NONE', *, *, #358, .F. ) ;
#136 = LINE ( 'NONE', #430, #447 ) ;
#137 = VECTOR ( 'NONE', #595, 1000.000000000000000 ) ;
#138 = AXIS2_PLACEMENT_3D ( 'NONE', #44, #912, #776 ) ;
#139 = CIRCLE ( 'NONE', #868, 1.000000000000000000 ) ;
#140 = EDGE_LOOP ( 'NONE', ( #838, #825 ) ) ;
#141 = DIRECTION ( 'NONE',  ( -0.000000000000000000, -1.000000000000000000, -0.000000000000000000 ) ) ;
#142 = ADVANCED_FACE ( 'NONE', ( #938 ), #562, .F. ) ;
#143 = ORIENTED_EDGE ( 'NONE', *, *, #829, .F. ) ;
#144 = ADVANCED_FACE ( 'NONE', ( #471, #697, #692 ), #97, .T. ) ;
#145 = CARTESIAN_POINT ( 'NONE',  ( 9.000000000000005329, 2.000000000000000000, 8.000000000000007105 ) ) ;
#146 = ORIENTED_EDGE ( 'NONE', *, *, #7, .T. ) ;
#147 = DIRECTION ( 'NONE',  ( 0.000000000000000000, 0.000000000000000000, -1.000000000000000000 ) ) ;
#148 = EDGE_CURVE ( 'NONE', #439, #344, #27, .T. ) ;
#149 = VERTEX_POINT ( 'NONE', #550 ) ;
#150 = CLOSED_SHELL ( 'NONE', ( #774, #142, #419, #317, #144, #76, #187, #810, #952, #133, #448, #818, #338, #708, #289, #484, #480, #897, #880, #507, #722, #551, #444, #68, #597, #88, #346, #888, #376, #276 ) ) ;
#151 = AXIS2_PLACEMENT_3D ( 'NONE', #733, #125, #269 ) ;
#152 = AXIS2_PLACEMENT_3D ( 'NONE', #445, #886, #817 ) ;
#153 = ORIENTED_EDGE ( 'NONE', *, *, #21, .F. ) ;
#154 = AXIS2_PLACEMENT_3D ( 'NONE', #403, #37, #332 ) ;
#155 = DIRECTION ( 'NONE',  ( 0.000000000000000000, 0.000000000000000000, -1.000000000000000000 ) ) ;
#156 = CARTESIAN_POINT ( 'NONE',  ( -2.250000000000000444, 4.000000000000000000, -6.499999999999999112 ) ) ;
#157 = ORIENTED_EDGE ( 'NONE', *, *, #719, .T. ) ;
#158 = DIRECTION ( 'NONE',  ( 1.000000000000000000, 0.000000000000000000, -0.000000000000000000 ) ) ;
#159 = VERTEX_POINT ( 'NONE', #239 ) ;
#160 = LINE ( 'NONE', #785, #486 ) ;
#161 = EDGE_CURVE ( 'NONE', #8, #439, #621, .T. ) ;
#162 = ORIENTED_EDGE ( 'NONE', *, *, #105, .F. ) ;
#163 = EDGE_CURVE ( 'NONE', #905, #64, #652, .T. ) ;
#164 = EDGE_LOOP ( 'NONE', ( #836, #274 ) ) ;
#165 = DIRECTION ( 'NONE',  ( 0.000000000000000000, 0.000000000000000000, -1.000000000000000000 ) ) ;
#166 = FACE_OUTER_BOUND ( 'NONE', #389, .T. ) ;
#167 = VECTOR ( 'NONE', #661, 1000.000000000000000 ) ;
#168 = FACE_OUTER_BOUND ( 'NONE', #370, .T. ) ;
#169 = AXIS2_PLACEMENT_3D ( 'NONE', #40, #793, #627 ) ;
#170 =( GEOMETRIC_REPRESENTATION_CONTEXT ( 3 ) GLOBAL_UNCERTAINTY_ASSIGNED_CONTEXT ( ( #56 ) ) GLOBAL_UNIT_ASSIGNED_CONTEXT ( ( #47, #208, #499 ) ) REPRESENTATION_CONTEXT ( 'NONE', 'WORKASPACE' ) );
#171 = VERTEX_POINT ( 'NONE', #862 ) ;
#172 = CARTESIAN_POINT ( 'NONE',  ( 7.999999999999996447, 2.000000000000000000, 12.00000000000000000 ) ) ;
#173 = AXIS2_PLACEMENT_3D ( 'NONE', #674, #892, #743 ) ;
#174 = DIRECTION ( 'NONE',  ( 0.000000000000000000, 0.000000000000000000, -1.000000000000000000 ) ) ;
#175 = CARTESIAN_POINT ( 'NONE',  ( -12.00000000000000000, 2.000000000000000000, -10.99999999999999289 ) ) ;
#176 = CARTESIAN_POINT ( 'NONE',  ( -11.00000000000000178, 0.000000000000000000, 6.000000000000002665 ) ) ;
#177 = VERTEX_POINT ( 'NONE', #841 ) ;
#178 = AXIS2_PLACEMENT_3D ( 'NONE', #599, #820, #147 ) ;
#179 = CARTESIAN_POINT ( 'NONE',  ( 9.000000000000005329, 2.000000000000000000, 8.000000000000007105 ) ) ;
#180 = CARTESIAN_POINT ( 'NONE',  ( -2.249999999999999556, 4.000000000000000000, -0.4999999999999987232 ) ) ;
#181 = CARTESIAN_POINT ( 'NONE',  ( 12.00000000000000000, 2.000000000000000000, -10.99999999999999289 ) ) ;
#182 = PLANE ( 'NONE',  #60 ) ;
#183 = ORIENTED_EDGE ( 'NONE', *, *, #148, .T. ) ;
#184 = CARTESIAN_POINT ( 'NONE',  ( -8.999999999999994671, 0.000000000000000000, 10.99999999999999467 ) ) ;
#185 = PLANE ( 'NONE',  #748 ) ;
#186 = DIRECTION ( 'NONE',  ( -0.000000000000000000, -0.000000000000000000, 1.000000000000000000 ) ) ;
#187 = ADVANCED_FACE ( 'NONE', ( #168 ), #182, .F. ) ;
#188 = CARTESIAN_POINT ( 'NONE',  ( -2.249999999999999556, 2.000000000000000000, -0.4999999999999987232 ) ) ;
#189 = EDGE_LOOP ( 'NONE', ( #492, #101, #528, #951 ) ) ;
#190 = DIRECTION ( 'NONE',  ( 0.000000000000000000, 1.000000000000000000, 0.000000000000000000 ) ) ;
#191 = VECTOR ( 'NONE', #780, 1000.000000000000000 ) ;
#192 = LINE ( 'NONE', #482, #126 ) ;
#193 = LINE ( 'NONE', #257, #341 ) ;
#194 = ORIENTED_EDGE ( 'NONE', *, *, #935, .F. ) ;
#195 = CARTESIAN_POINT ( 'NONE',  ( -2.250000000000000444, 4.000000000000000000, -6.499999999999999112 ) ) ;
#196 = EDGE_CURVE ( 'NONE', #678, #466, #926, .T. ) ;
#197 = EDGE_LOOP ( 'NONE', ( #729, #715, #617, #451 ) ) ;
#198 = EDGE_CURVE ( 'NONE', #8, #878, #399, .T. ) ;
#199 =( NAMED_UNIT ( * ) PLANE_ANGLE_UNIT ( ) SI_UNIT ( $, .RADIAN. ) );
#200 = CARTESIAN_POINT ( 'NONE',  ( -2.250000000000000444, 2.000000000000000000, -6.499999999999999112 ) ) ;
#201 = ORIENTED_EDGE ( 'NONE', *, *, #698, .F. ) ;
#202 = PRODUCT_DEFINITION_CONTEXT ( 'detailed design', #436, 'design' ) ;
#203 = CIRCLE ( 'NONE', #169, 1.249999999999999334 ) ;
#204 = VECTOR ( 'NONE', #20, 1000.000000000000000 ) ;
#205 = CIRCLE ( 'NONE', #173, 1.000000000000000888 ) ;
#206 = ORIENTED_EDGE ( 'NONE', *, *, #3, .T. ) ;
#207 = CARTESIAN_POINT ( 'NONE',  ( 9.000000000000005329, 0.000000000000000000, 8.000000000000007105 ) ) ;
#208 =( NAMED_UNIT ( * ) PLANE_ANGLE_UNIT ( ) SI_UNIT ( $, .RADIAN. ) );
#209 = CARTESIAN_POINT ( 'NONE',  ( 11.00000000000000355, 0.000000000000000000, 6.000000000000000000 ) ) ;
#210 = ORIENTED_EDGE ( 'NONE', *, *, #42, .T. ) ;
#211 = DIRECTION ( 'NONE',  ( 0.000000000000000000, 0.000000000000000000, 1.000000000000000000 ) ) ;
#212 = EDGE_CURVE ( 'NONE', #747, #453, #262, .T. ) ;
#213 = ORIENTED_EDGE ( 'NONE', *, *, #100, .T. ) ;
#214 = DIRECTION ( 'NONE',  ( 0.000000000000000000, 0.000000000000000000, -1.000000000000000000 ) ) ;
#215 = AXIS2_PLACEMENT_3D ( 'NONE', #180, #174, #860 ) ;
#216 = ORIENTED_EDGE ( 'NONE', *, *, #124, .F. ) ;
#217 = CARTESIAN_POINT ( 'NONE',  ( -12.00000000000000000, 2.000000000000000000, 5.999999999999995559 ) ) ;
#218 = VECTOR ( 'NONE', #223, 1000.000000000000000 ) ;
#219 = VERTEX_POINT ( 'NONE', #867 ) ;
#220 = LINE ( 'NONE', #363, #707 ) ;
#221 = DIRECTION ( 'NONE',  ( -0.000000000000000000, -1.000000000000000000, -0.000000000000000000 ) ) ;
#222 = ORIENTED_EDGE ( 'NONE', *, *, #935, .T. ) ;
#223 = DIRECTION ( 'NONE',  ( -1.000000000000000000, -0.000000000000000000, 7.885106708985492732E-17 ) ) ;
#224 = ORIENTED_EDGE ( 'NONE', *, *, #782, .F. ) ;
#225 = DIRECTION ( 'NONE',  ( 0.000000000000000000, 0.000000000000000000, -1.000000000000000000 ) ) ;
#226 = ORIENTED_EDGE ( 'NONE', *, *, #759, .T. ) ;
#227 = VECTOR ( 'NONE', #353, 1000.000000000000000 ) ;
#228 = AXIS2_PLACEMENT_3D ( 'NONE', #859, #784, #327 ) ;
#229 = EDGE_LOOP ( 'NONE', ( #287, #267, #753, #258 ) ) ;
#230 = EDGE_CURVE ( 'NONE', #395, #656, #483, .T. ) ;
#231 = CARTESIAN_POINT ( 'NONE',  ( -10.99999999999999289, 2.000000000000000000, -11.99999999999999822 ) ) ;
#232 = EDGE_CURVE ( 'NONE', #815, #611, #787, .T. ) ;
#233 = DIRECTION ( 'NONE',  ( 0.000000000000000000, 0.000000000000000000, -1.000000000000000000 ) ) ;
#234 = ORIENTED_EDGE ( 'NONE', *, *, #212, .F. ) ;
#235 = CARTESIAN_POINT ( 'NONE',  ( -10.00000000000000178, 0.000000000000000000, 7.000000000000002665 ) ) ;
#236 = VERTEX_POINT ( 'NONE', #714 ) ;
#237 = DIRECTION ( 'NONE',  ( 0.000000000000000000, 0.000000000000000000, -1.000000000000000000 ) ) ;
#238 = CYLINDRICAL_SURFACE ( 'NONE', #804, 1.249999999999999334 ) ;
#239 = CARTESIAN_POINT ( 'NONE',  ( -10.99999999999999289, 2.000000000000000000, 7.000000000000002665 ) ) ;
#240 = ORIENTED_EDGE ( 'NONE', *, *, #782, .T. ) ;
#241 = DIRECTION ( 'NONE',  ( -1.000000000000000000, -0.000000000000000000, -0.000000000000000000 ) ) ;
#242 = DIRECTION ( 'NONE',  ( 0.000000000000000000, 0.000000000000000000, 1.000000000000000000 ) ) ;
#243 = CARTESIAN_POINT ( 'NONE',  ( 0.5000000000000004441, 5.000000000000000000, -3.870000000000000107 ) ) ;
#244 = DIRECTION ( 'NONE',  ( 0.000000000000000000, 0.000000000000000000, 1.000000000000000000 ) ) ;
#245 = AXIS2_PLACEMENT_3D ( 'NONE', #404, #712, #38 ) ;
#246 = ORIENTED_EDGE ( 'NONE', *, *, #568, .T. ) ;
#247 = CARTESIAN_POINT ( 'NONE',  ( -9.999999999999992895, 2.000000000000000000, 8.000000000000001776 ) ) ;
#248 = ORIENTED_EDGE ( 'NONE', *, *, #198, .T. ) ;
#249 = FACE_OUTER_BOUND ( 'NONE', #35, .T. ) ;
#250 = LINE ( 'NONE', #111, #204 ) ;
#251 = CARTESIAN_POINT ( 'NONE',  ( 0.5000000000000004441, 4.000000000000000000, -5.770000000000000462 ) ) ;
#252 = ORIENTED_EDGE ( 'NONE', *, *, #655, .T. ) ;
#253 = EDGE_CURVE ( 'NONE', #395, #642, #203, .T. ) ;
#254 = CYLINDRICAL_SURFACE ( 'NONE', #154, 1.000000000000000888 ) ;
#255 = CARTESIAN_POINT ( 'NONE',  ( -12.00000000000000000, 0.000000000000000000, -10.99999999999999289 ) ) ;
#256 = CYLINDRICAL_SURFACE ( 'NONE', #725, 1.899999999999999689 ) ;
#257 = CARTESIAN_POINT ( 'NONE',  ( 10.99999999999999289, 2.000000000000000000, -12.00000000000000000 ) ) ;
#258 = ORIENTED_EDGE ( 'NONE', *, *, #212, .T. ) ;
#259 = CARTESIAN_POINT ( 'NONE',  ( 8.000000000000003553, 2.000000000000000000, 11.00000000000000178 ) ) ;
#260 = EDGE_LOOP ( 'NONE', ( #959, #928 ) ) ;
#261 = CARTESIAN_POINT ( 'NONE',  ( 8.000000000000003553, 0.000000000000000000, 11.00000000000000178 ) ) ;
#262 = LINE ( 'NONE', #630, #887 ) ;
#263 = ORIENTED_EDGE ( 'NONE', *, *, #423, .F. ) ;
#264 = VECTOR ( 'NONE', #186, 1000.000000000000000 ) ;
#265 = DIRECTION ( 'NONE',  ( -0.000000000000000000, -1.000000000000000000, -0.000000000000000000 ) ) ;
#266 = EDGE_CURVE ( 'NONE', #949, #893, #741, .T. ) ;
#267 = ORIENTED_EDGE ( 'NONE', *, *, #796, .F. ) ;
#268 = DIRECTION ( 'NONE',  ( -0.000000000000000000, -0.000000000000000000, -1.000000000000000000 ) ) ;
#269 = DIRECTION ( 'NONE',  ( 0.000000000000000000, 0.000000000000000000, -1.000000000000000000 ) ) ;
#270 = EDGE_LOOP ( 'NONE', ( #851, #82, #457, #213 ) ) ;
#271 = DIRECTION ( 'NONE',  ( 0.000000000000000000, 0.000000000000000000, 1.000000000000000000 ) ) ;
#272 = LINE ( 'NONE', #943, #641 ) ;
#273 = EDGE_CURVE ( 'NONE', #177, #236, #876, .T. ) ;
#274 = ORIENTED_EDGE ( 'NONE', *, *, #454, .T. ) ;
#275 = VERTEX_POINT ( 'NONE', #102 ) ;
#276 = ADVANCED_FACE ( 'NONE', ( #83 ), #309, .T. ) ;
#277 = VECTOR ( 'NONE', #907, 1000.000000000000000 ) ;
#278 = CARTESIAN_POINT ( 'NONE',  ( -11.00000000000000000, 2.000000000000000000, -11.00000000000000000 ) ) ;
#279 = AXIS2_PLACEMENT_3D ( 'NONE', #856, #462, #865 ) ;
#280 = AXIS2_PLACEMENT_3D ( 'NONE', #853, #190, #864 ) ;
#281 = CARTESIAN_POINT ( 'NONE',  ( -9.999999999999992895, 0.000000000000000000, 8.000000000000001776 ) ) ;
#282 = ORIENTED_EDGE ( 'NONE', *, *, #467, .F. ) ;
#283 = EDGE_CURVE ( 'NONE', #344, #831, #320, .T. ) ;
#284 = SURFACE_SIDE_STYLE ('',( #798 ) ) ;
#285 = ORIENTED_EDGE ( 'NONE', *, *, #632, .T. ) ;
#286 = DIRECTION ( 'NONE',  ( 0.000000000000000000, 0.000000000000000000, 1.000000000000000000 ) ) ;
#287 = ORIENTED_EDGE ( 'NONE', *, *, #21, .T. ) ;
#288 = LINE ( 'NONE', #357, #167 ) ;
#289 = ADVANCED_FACE ( 'NONE', ( #314 ), #701, .F. ) ;
#290 = ORIENTED_EDGE ( 'NONE', *, *, #698, .T. ) ;
#291 = CARTESIAN_POINT ( 'NONE',  ( 10.00000000000000355, 2.000000000000000000, 8.000000000000000000 ) ) ;
#292 = CARTESIAN_POINT ( 'NONE',  ( 10.00000000000001243, 2.000000000000000000, 7.000000000000000000 ) ) ;
#293 = CIRCLE ( 'NONE', #962, 1.899999999999999689 ) ;
#294 = VERTEX_POINT ( 'NONE', #328 ) ;
#295 = CARTESIAN_POINT ( 'NONE',  ( -7.999999999999994671, 0.000000000000000000, 11.00000000000000355 ) ) ;
#296 = LINE ( 'NONE', #957, #277 ) ;
#297 = EDGE_CURVE ( 'NONE', #159, #747, #160, .T. ) ;
#298 = ORIENTED_EDGE ( 'NONE', *, *, #643, .F. ) ;
#299 = EDGE_CURVE ( 'NONE', #495, #41, #690, .T. ) ;
#300 = CARTESIAN_POINT ( 'NONE',  ( 0.5000000000000004441, 5.000000000000000000, -3.870000000000000107 ) ) ;
#301 = ORIENTED_EDGE ( 'NONE', *, *, #148, .F. ) ;
#302 = CIRCLE ( 'NONE', #61, 1.249999999999999334 ) ;
#303 = VECTOR ( 'NONE', #792, 1000.000000000000000 ) ;
#304 = AXIS2_PLACEMENT_3D ( 'NONE', #647, #493, #501 ) ;
#305 = ORIENTED_EDGE ( 'NONE', *, *, #113, .F. ) ;
#306 = CARTESIAN_POINT ( 'NONE',  ( -8.999999999999994671, 2.000000000000000000, 8.000000000000008882 ) ) ;
#307 = ORIENTED_EDGE ( 'NONE', *, *, #731, .F. ) ;
#308 = EDGE_LOOP ( 'NONE', ( #146, #572, #883, #965 ) ) ;
#309 = PLANE ( 'NONE',  #29 ) ;
#310 = DIRECTION ( 'NONE',  ( 1.000000000000000000, -0.000000000000000000, 8.673617379884193244E-16 ) ) ;
#311 = ORIENTED_EDGE ( 'NONE', *, *, #266, .F. ) ;
#312 = ORIENTED_EDGE ( 'NONE', *, *, #438, .T. ) ;
#313 = CARTESIAN_POINT ( 'NONE',  ( -10.99999999999999289, 0.000000000000000000, -11.99999999999999822 ) ) ;
#314 = FACE_OUTER_BOUND ( 'NONE', #270, .T. ) ;
#315 = DIRECTION ( 'NONE',  ( -0.000000000000000000, -1.000000000000000000, -0.000000000000000000 ) ) ;
#316 = DIRECTION ( 'NONE',  ( -0.000000000000000000, -1.000000000000000000, -0.000000000000000000 ) ) ;
#317 = ADVANCED_FACE ( 'NONE', ( #762, #90, #936, #458 ), #185, .F. ) ;
#318 = VERTEX_POINT ( 'NONE', #535 ) ;
#319 = CARTESIAN_POINT ( 'NONE',  ( -7.999999999999986677, 2.000000000000000000, 12.00000000000000178 ) ) ;
#320 = LINE ( 'NONE', #930, #766 ) ;
#321 = LINE ( 'NONE', #931, #325 ) ;
#322 = DIRECTION ( 'NONE',  ( -0.000000000000000000, -1.000000000000000000, -0.000000000000000000 ) ) ;
#323 = VECTOR ( 'NONE', #268, 1000.000000000000000 ) ;
#324 = EDGE_CURVE ( 'NONE', #352, #123, #695, .T. ) ;
#325 = VECTOR ( 'NONE', #315, 1000.000000000000000 ) ;
#326 = ORIENTED_EDGE ( 'NONE', *, *, #806, .F. ) ;
#327 = DIRECTION ( 'NONE',  ( 1.000000000000000000, 0.000000000000000000, -7.885106708985492732E-17 ) ) ;
#328 = CARTESIAN_POINT ( 'NONE',  ( -8.999999999999994671, 0.000000000000000000, 8.000000000000008882 ) ) ;
#329 = CYLINDRICAL_SURFACE ( 'NONE', #511, 1.249999999999999334 ) ;
#330 = CARTESIAN_POINT ( 'NONE',  ( -2.249999999999999556, 4.000000000000000000, -0.4999999999999987232 ) ) ;
#331 = ORIENTED_EDGE ( 'NONE', *, *, #163, .F. ) ;
#332 = DIRECTION ( 'NONE',  ( 0.000000000000000000, 0.000000000000000000, -1.000000000000000000 ) ) ;
#333 = DIRECTION ( 'NONE',  ( 8.673617379884193244E-16, 0.000000000000000000, -1.000000000000000000 ) ) ;
#334 = CYLINDRICAL_SURFACE ( 'NONE', #877, 0.9999999999999991118 ) ;
#335 = DIRECTION ( 'NONE',  ( -0.000000000000000000, -1.000000000000000000, -0.000000000000000000 ) ) ;
#336 = ORIENTED_EDGE ( 'NONE', *, *, #680, .F. ) ;
#337 = DIRECTION ( 'NONE',  ( 0.000000000000000000, 0.000000000000000000, -1.000000000000000000 ) ) ;
#338 = ADVANCED_FACE ( 'NONE', ( #249 ), #391, .F. ) ;
#339 = LINE ( 'NONE', #644, #967 ) ;
#340 = ORIENTED_EDGE ( 'NONE', *, *, #347, .F. ) ;
#341 = VECTOR ( 'NONE', #849, 1000.000000000000000 ) ;
#342 = VECTOR ( 'NONE', #442, 1000.000000000000000 ) ;
#343 = CARTESIAN_POINT ( 'NONE',  ( 12.00000000000000000, 2.000000000000000000, -10.99999999999999289 ) ) ;
#344 = VERTEX_POINT ( 'NONE', #255 ) ;
#345 = CYLINDRICAL_SURFACE ( 'NONE', #434, 1.000000000000000888 ) ;
#346 = ADVANCED_FACE ( 'NONE', ( #855 ), #379, .F. ) ;
#347 = EDGE_CURVE ( 'NONE', #4, #275, #302, .T. ) ;
#348 = ORIENTED_EDGE ( 'NONE', *, *, #113, .T. ) ;
#349 = DIRECTION ( 'NONE',  ( -0.000000000000000000, -1.000000000000000000, -0.000000000000000000 ) ) ;
#350 = EDGE_CURVE ( 'NONE', #72, #678, #628, .T. ) ;
#351 = DIRECTION ( 'NONE',  ( 0.000000000000000000, 0.000000000000000000, -1.000000000000000000 ) ) ;
#352 = VERTEX_POINT ( 'NONE', #839 ) ;
#353 = DIRECTION ( 'NONE',  ( 1.000000000000000000, 0.000000000000000000, 0.000000000000000000 ) ) ;
#354 = STYLED_ITEM ( 'NONE', ( #875 ), #596 ) ;
#355 = CIRCLE ( 'NONE', #945, 0.9999999999999991118 ) ;
#356 = VERTEX_POINT ( 'NONE', #475 ) ;
#357 = CARTESIAN_POINT ( 'NONE',  ( 3.750000000000000000, 4.000000000000000000, -6.499999999999999112 ) ) ;
#358 = EDGE_CURVE ( 'NONE', #558, #963, #736, .T. ) ;
#359 = EDGE_LOOP ( 'NONE', ( #735, #312, #914, #15 ) ) ;
#360 = DIRECTION ( 'NONE',  ( 0.000000000000000000, 0.000000000000000000, 1.000000000000000000 ) ) ;
#361 = EDGE_CURVE ( 'NONE', #747, #495, #401, .T. ) ;
#362 = ORIENTED_EDGE ( 'NONE', *, *, #561, .F. ) ;
#363 = CARTESIAN_POINT ( 'NONE',  ( -10.99999999999999289, 0.000000000000000000, -11.99999999999999822 ) ) ;
#364 = CIRCLE ( 'NONE', #663, 0.9999999999999991118 ) ;
#365 = AXIS2_PLACEMENT_3D ( 'NONE', #261, #410, #609 ) ;
#366 = FACE_OUTER_BOUND ( 'NONE', #308, .T. ) ;
#367 = VECTOR ( 'NONE', #626, 1000.000000000000000 ) ;
#368 = EDGE_LOOP ( 'NONE', ( #760, #885, #449, #521, #222, #603, #66, #872, #157, #754, #114, #62, #98, #252, #833, #606 ) ) ;
#369 = PLANE ( 'NONE',  #49 ) ;
#370 = EDGE_LOOP ( 'NONE', ( #592, #234, #569, #835 ) ) ;
#371 = DIRECTION ( 'NONE',  ( 0.000000000000000000, 1.000000000000000000, -0.000000000000000000 ) ) ;
#372 = EDGE_CURVE ( 'NONE', #612, #795, #429, .T. ) ;
#373 = ORIENTED_EDGE ( 'NONE', *, *, #524, .T. ) ;
#374 = CYLINDRICAL_SURFACE ( 'NONE', #891, 1.000000000000000000 ) ;
#375 = CYLINDRICAL_SURFACE ( 'NONE', #485, 1.000000000000000000 ) ;
#376 = ADVANCED_FACE ( 'NONE', ( #685 ), #256, .T. ) ;
#377 = ORIENTED_EDGE ( 'NONE', *, *, #393, .F. ) ;
#378 = CARTESIAN_POINT ( 'NONE',  ( -9.299999999999998934, 0.000000000000000000, -9.299999999999997158 ) ) ;
#379 = PLANE ( 'NONE',  #215 ) ;
#380 = AXIS2_PLACEMENT_3D ( 'NONE', #176, #117, #778 ) ;
#381 = DIRECTION ( 'NONE',  ( 0.000000000000000000, 0.000000000000000000, 1.000000000000000000 ) ) ;
#382 = AXIS2_PLACEMENT_3D ( 'NONE', #608, #619, #242 ) ;
#383 = AXIS2_PLACEMENT_3D ( 'NONE', #259, #711, #479 ) ;
#384 = ORIENTED_EDGE ( 'NONE', *, *, #283, .F. ) ;
#385 = DIRECTION ( 'NONE',  ( -0.000000000000000000, -1.000000000000000000, -0.000000000000000000 ) ) ;
#386 = DIRECTION ( 'NONE',  ( 1.000000000000000000, -0.000000000000000000, -0.000000000000000000 ) ) ;
#387 = DIRECTION ( 'NONE',  ( -0.000000000000000000, -1.000000000000000000, -0.000000000000000000 ) ) ;
#388 = DIRECTION ( 'NONE',  ( 0.000000000000000000, 0.000000000000000000, -1.000000000000000000 ) ) ;
#389 = EDGE_LOOP ( 'NONE', ( #412, #290, #206, #326 ) ) ;
#390 = PLANE ( 'NONE',  #73 ) ;
#391 = PLANE ( 'NONE',  #382 ) ;
#392 = DIRECTION ( 'NONE',  ( 0.000000000000000000, 1.000000000000000000, 0.000000000000000000 ) ) ;
#393 = EDGE_CURVE ( 'NONE', #171, #624, #861, .T. ) ;
#394 = CARTESIAN_POINT ( 'NONE',  ( -12.00000000000000000, 2.000000000000000000, -10.99999999999999289 ) ) ;
#395 = VERTEX_POINT ( 'NONE', #717 ) ;
#396 = CARTESIAN_POINT ( 'NONE',  ( 0.5000000000000004441, 5.000000000000000000, -3.870000000000000107 ) ) ;
#397 = DIRECTION ( 'NONE',  ( 0.000000000000000000, 1.000000000000000000, 0.000000000000000000 ) ) ;
#398 = CARTESIAN_POINT ( 'NONE',  ( 7.999999999999996447, 0.000000000000000000, 12.00000000000000000 ) ) ;
#399 = LINE ( 'NONE', #704, #640 ) ;
#400 = AXIS2_PLACEMENT_3D ( 'NONE', #156, #2, #676 ) ;
#401 = CIRCLE ( 'NONE', #245, 0.9999999999999991118 ) ;
#402 = ORIENTED_EDGE ( 'NONE', *, *, #759, .F. ) ;
#403 = CARTESIAN_POINT ( 'NONE',  ( 11.00000000000000178, 2.000000000000000000, -11.00000000000000000 ) ) ;
#404 = CARTESIAN_POINT ( 'NONE',  ( -9.999999999999992895, 2.000000000000000000, 8.000000000000001776 ) ) ;
#405 = CARTESIAN_POINT ( 'NONE',  ( -9.299999999999998934, 0.000000000000000000, -9.299999999999997158 ) ) ;
#406 = DIRECTION ( 'NONE',  ( 1.000000000000000000, -0.000000000000000000, -1.084202172485505543E-16 ) ) ;
#407 = ORIENTED_EDGE ( 'NONE', *, *, #518, .T. ) ;
#408 = EDGE_CURVE ( 'NONE', #123, #356, #545, .T. ) ;
#409 = CARTESIAN_POINT ( 'NONE',  ( 9.000000000000005329, 2.000000000000000000, 10.99999999999999467 ) ) ;
#410 = DIRECTION ( 'NONE',  ( 0.000000000000000000, 1.000000000000000000, -0.000000000000000000 ) ) ;
#411 = CYLINDRICAL_SURFACE ( 'NONE', #523, 0.9999999999999991118 ) ;
#412 = ORIENTED_EDGE ( 'NONE', *, *, #438, .F. ) ;
#413 = CARTESIAN_POINT ( 'NONE',  ( -8.999999999999994671, 2.000000000000000000, 10.99999999999999467 ) ) ;
#414 = CARTESIAN_POINT ( 'NONE',  ( 9.000000000000005329, 2.000000000000000000, 8.000000000000007105 ) ) ;
#415 = SURFACE_STYLE_USAGE ( .BOTH. , #284 ) ;
#416 = CIRCLE ( 'NONE', #542, 0.9999999999999991118 ) ;
#417 = VERTEX_POINT ( 'NONE', #702 ) ;
#418 = VECTOR ( 'NONE', #349, 1000.000000000000000 ) ;
#419 = ADVANCED_FACE ( 'NONE', ( #96 ), #238, .F. ) ;
#420 = AXIS2_PLACEMENT_3D ( 'NONE', #560, #615, #786 ) ;
#421 = VECTOR ( 'NONE', #934, 1000.000000000000000 ) ;
#422 = DIRECTION ( 'NONE',  ( 0.000000000000000000, 0.000000000000000000, -1.000000000000000000 ) ) ;
#423 = EDGE_CURVE ( 'NONE', #439, #219, #91, .T. ) ;
#424 = ORIENTED_EDGE ( 'NONE', *, *, #680, .T. ) ;
#425 =( LENGTH_UNIT ( ) NAMED_UNIT ( * ) SI_UNIT ( .MILLI., .METRE. ) );
#426 = EDGE_CURVE ( 'NONE', #159, #953, #192, .T. ) ;
#427 = PLANE ( 'NONE',  #724 ) ;
#428 = PRODUCT_CONTEXT ( 'NONE', #757, 'mechanical' ) ;
#429 = LINE ( 'NONE', #906, #889 ) ;
#430 = CARTESIAN_POINT ( 'NONE',  ( -8.999999999999994671, 0.000000000000000000, 10.99999999999999467 ) ) ;
#431 = CARTESIAN_POINT ( 'NONE',  ( 10.99999999999999467, 2.000000000000000000, 7.000000000000000000 ) ) ;
#432 = CIRCLE ( 'NONE', #573, 0.9999999999999991118 ) ;
#433 = ORIENTED_EDGE ( 'NONE', *, *, #746, .T. ) ;
#434 = AXIS2_PLACEMENT_3D ( 'NONE', #278, #648, #813 ) ;
#435 = LINE ( 'NONE', #343, #826 ) ;
#436 = APPLICATION_CONTEXT ( 'automotive_design' ) ;
#437 = EDGE_CURVE ( 'NONE', #815, #171, #250, .T. ) ;
#438 = EDGE_CURVE ( 'NONE', #275, #236, #321, .T. ) ;
#439 = VERTEX_POINT ( 'NONE', #175 ) ;
#440 = DIRECTION ( 'NONE',  ( 0.000000000000000000, 0.000000000000000000, -1.000000000000000000 ) ) ;
#441 = ORIENTED_EDGE ( 'NONE', *, *, #454, .F. ) ;
#442 = DIRECTION ( 'NONE',  ( -0.000000000000000000, -1.000000000000000000, -0.000000000000000000 ) ) ;
#443 = ORIENTED_EDGE ( 'NONE', *, *, #437, .T. ) ;
#444 = ADVANCED_FACE ( 'NONE', ( #166 ), #329, .F. ) ;
#445 = CARTESIAN_POINT ( 'NONE',  ( 9.299999999999998934, 2.000000000000000000, -9.299999999999997158 ) ) ;
#446 = AXIS2_PLACEMENT_3D ( 'NONE', #752, #515, #225 ) ;
#447 = VECTOR ( 'NONE', #129, 1000.000000000000000 ) ;
#448 = ADVANCED_FACE ( 'NONE', ( #781 ), #549, .F. ) ;
#449 = ORIENTED_EDGE ( 'NONE', *, *, #361, .T. ) ;
#450 = AXIS2_PLACEMENT_3D ( 'NONE', #396, #837, #165 ) ;
#451 = ORIENTED_EDGE ( 'NONE', *, *, #408, .T. ) ;
#452 = CARTESIAN_POINT ( 'NONE',  ( 9.000000000000005329, 2.000000000000000000, 10.99999999999999467 ) ) ;
#453 = VERTEX_POINT ( 'NONE', #713 ) ;
#454 = EDGE_CURVE ( 'NONE', #656, #939, #109, .T. ) ;
#455 = VERTEX_POINT ( 'NONE', #691 ) ;
#456 = CARTESIAN_POINT ( 'NONE',  ( 10.00000000000001243, 2.000000000000000000, 7.000000000000000000 ) ) ;
#457 = ORIENTED_EDGE ( 'NONE', *, *, #372, .F. ) ;
#458 = FACE_BOUND ( 'NONE', #574, .T. ) ;
#459 = DIRECTION ( 'NONE',  ( -0.000000000000000000, -1.000000000000000000, -0.000000000000000000 ) ) ;
#460 = ORIENTED_EDGE ( 'NONE', *, *, #437, .F. ) ;
#461 = DIRECTION ( 'NONE',  ( 0.000000000000000000, 1.000000000000000000, 0.000000000000000000 ) ) ;
#462 = DIRECTION ( 'NONE',  ( 0.000000000000000000, 1.000000000000000000, -0.000000000000000000 ) ) ;
#463 = CARTESIAN_POINT ( 'NONE',  ( -11.00000000000000000, 2.000000000000000000, -11.00000000000000000 ) ) ;
#464 = CIRCLE ( 'NONE', #365, 0.9999999999999991118 ) ;
#465 = AXIS2_PLACEMENT_3D ( 'NONE', #845, #700, #613 ) ;
#466 = VERTEX_POINT ( 'NONE', #696 ) ;
#467 = EDGE_CURVE ( 'NONE', #417, #490, #31, .T. ) ;
#468 = LINE ( 'NONE', #773, #927 ) ;
#469 = DIRECTION ( 'NONE',  ( 0.000000000000000000, 1.000000000000000000, -0.000000000000000000 ) ) ;
#470 = DIRECTION ( 'NONE',  ( -0.000000000000000000, -1.000000000000000000, -0.000000000000000000 ) ) ;
#471 = FACE_BOUND ( 'NONE', #164, .T. ) ;
#472 = ORIENTED_EDGE ( 'NONE', *, *, #230, .F. ) ;
#473 = FACE_OUTER_BOUND ( 'NONE', #751, .T. ) ;
#474 = EDGE_LOOP ( 'NONE', ( #738, #224, #873, #443 ) ) ;
#475 = CARTESIAN_POINT ( 'NONE',  ( 0.5000000000000006661, 4.000000000000000000, -1.969999999999999973 ) ) ;
#476 = FACE_OUTER_BOUND ( 'NONE', #87, .T. ) ;
#477 = CARTESIAN_POINT ( 'NONE',  ( 9.299999999999998934, 2.000000000000000000, -9.299999999999997158 ) ) ;
#478 = EDGE_LOOP ( 'NONE', ( #710, #298, #565, #240 ) ) ;
#479 = DIRECTION ( 'NONE',  ( 0.000000000000000000, 0.000000000000000000, -1.000000000000000000 ) ) ;
#480 = ADVANCED_FACE ( 'NONE', ( #39 ), #33, .F. ) ;
#481 = DIRECTION ( 'NONE',  ( 0.000000000000000000, 0.000000000000000000, -1.000000000000000000 ) ) ;
#482 = CARTESIAN_POINT ( 'NONE',  ( -10.99999999999999289, 2.000000000000000000, 7.000000000000002665 ) ) ;
#483 = LINE ( 'NONE', #489, #496 ) ;
#484 = ADVANCED_FACE ( 'NONE', ( #476 ), #334, .T. ) ;
#485 = AXIS2_PLACEMENT_3D ( 'NONE', #84, #14, #526 ) ;
#486 = VECTOR ( 'NONE', #386, 1000.000000000000000 ) ;
#487 = ORIENTED_EDGE ( 'NONE', *, *, #561, .T. ) ;
#488 = DIRECTION ( 'NONE',  ( 1.020425574104004985E-16, 0.000000000000000000, 1.000000000000000000 ) ) ;
#489 = CARTESIAN_POINT ( 'NONE',  ( -9.299999999999998934, 2.000000000000000000, -8.049999999999998934 ) ) ;
#490 = VERTEX_POINT ( 'NONE', #925 ) ;
#491 = CARTESIAN_POINT ( 'NONE',  ( 9.000000000000005329, 0.000000000000000000, 10.99999999999999467 ) ) ;
#492 = ORIENTED_EDGE ( 'NONE', *, *, #850, .T. ) ;
#493 = DIRECTION ( 'NONE',  ( 0.000000000000000000, 1.000000000000000000, -0.000000000000000000 ) ) ;
#494 = FACE_OUTER_BOUND ( 'NONE', #854, .T. ) ;
#495 = VERTEX_POINT ( 'NONE', #103 ) ;
#496 = VECTOR ( 'NONE', #932, 1000.000000000000000 ) ;
#497 = AXIS2_PLACEMENT_3D ( 'NONE', #614, #333, #95 ) ;
#498 = EDGE_CURVE ( 'NONE', #624, #546, #464, .T. ) ;
#499 =( NAMED_UNIT ( * ) SI_UNIT ( $, .STERADIAN. ) SOLID_ANGLE_UNIT ( ) );
#500 = CARTESIAN_POINT ( 'NONE',  ( -2.250000000000000444, 4.000000000000000000, -6.499999999999999112 ) ) ;
#501 = DIRECTION ( 'NONE',  ( 0.000000000000000000, 0.000000000000000000, -1.000000000000000000 ) ) ;
#502 = LINE ( 'NONE', #566, #227 ) ;
#503 = CARTESIAN_POINT ( 'NONE',  ( 10.99999999999999467, 0.000000000000000000, 7.000000000000000000 ) ) ;
#504 = ORIENTED_EDGE ( 'NONE', *, *, #105, .T. ) ;
#505 = DIRECTION ( 'NONE',  ( -1.000000000000000000, -0.000000000000000000, -0.000000000000000000 ) ) ;
#506 = EDGE_CURVE ( 'NONE', #675, #72, #950, .T. ) ;
#507 = ADVANCED_FACE ( 'NONE', ( #494 ), #345, .T. ) ;
#508 = VECTOR ( 'NONE', #616, 1000.000000000000000 ) ;
#509 = ORIENTED_EDGE ( 'NONE', *, *, #643, .T. ) ;
#510 = UNCERTAINTY_MEASURE_WITH_UNIT (LENGTH_MEASURE( 1.000000000000000082E-05 ), #425, 'distance_accuracy_value', 'NONE');
#511 = AXIS2_PLACEMENT_3D ( 'NONE', #840, #543, #620 ) ;
#512 = DIRECTION ( 'NONE',  ( 0.000000000000000000, 1.000000000000000000, 0.000000000000000000 ) ) ;
#513 = EDGE_LOOP ( 'NONE', ( #744, #362, #263, #183 ) ) ;
#514 = DIRECTION ( 'NONE',  ( 0.000000000000000000, 0.000000000000000000, -1.000000000000000000 ) ) ;
#515 = DIRECTION ( 'NONE',  ( 0.000000000000000000, 1.000000000000000000, -0.000000000000000000 ) ) ;
#516 = PRODUCT_DEFINITION ( 'UNKNOWN', '', #527, #202 ) ;
#517 = ORIENTED_EDGE ( 'NONE', *, *, #163, .T. ) ;
#518 = EDGE_CURVE ( 'NONE', #294, #764, #136, .T. ) ;
#519 = DIRECTION ( 'NONE',  ( -1.000000000000000000, -0.000000000000000000, 7.885106708985492732E-17 ) ) ;
#520 = ORIENTED_EDGE ( 'NONE', *, *, #17, .F. ) ;
#521 = ORIENTED_EDGE ( 'NONE', *, *, #299, .T. ) ;
#522 = CARTESIAN_POINT ( 'NONE',  ( 0.5000000000000006661, 5.000000000000000000, -1.969999999999999973 ) ) ;
#523 = AXIS2_PLACEMENT_3D ( 'NONE', #557, #316, #388 ) ;
#524 = EDGE_CURVE ( 'NONE', #558, #417, #435, .T. ) ;
#525 = CIRCLE ( 'NONE', #86, 1.000000000000000000 ) ;
#526 = DIRECTION ( 'NONE',  ( 0.000000000000000000, 0.000000000000000000, -1.000000000000000000 ) ) ;
#527 = PRODUCT_DEFINITION_FORMATION_WITH_SPECIFIED_SOURCE ( 'ANY', '', #802, .NOT_KNOWN. ) ;
#528 = ORIENTED_EDGE ( 'NONE', *, *, #794, .F. ) ;
#529 = CARTESIAN_POINT ( 'NONE',  ( 12.00000000000000178, 2.000000000000000000, 5.999999999999992895 ) ) ;
#530 = DIRECTION ( 'NONE',  ( 1.000000000000000000, -0.000000000000000000, 8.673617379884193244E-16 ) ) ;
#531 = LINE ( 'NONE', #431, #563 ) ;
#532 = ORIENTED_EDGE ( 'NONE', *, *, #506, .F. ) ;
#533 = FACE_OUTER_BOUND ( 'NONE', #229, .T. ) ;
#534 = ORIENTED_EDGE ( 'NONE', *, *, #538, .T. ) ;
#535 = CARTESIAN_POINT ( 'NONE',  ( -2.250000000000000444, 4.000000000000000000, -6.499999999999999112 ) ) ;
#536 = DIRECTION ( 'NONE',  ( 0.000000000000000000, 0.000000000000000000, 1.000000000000000000 ) ) ;
#537 = DIRECTION ( 'NONE',  ( -0.000000000000000000, -1.000000000000000000, -0.000000000000000000 ) ) ;
#538 = EDGE_CURVE ( 'NONE', #642, #939, #801, .T. ) ;
#539 = ORIENTED_EDGE ( 'NONE', *, *, #299, .F. ) ;
#540 = FACE_OUTER_BOUND ( 'NONE', #772, .T. ) ;
#541 = CARTESIAN_POINT ( 'NONE',  ( 9.299999999999998934, 2.000000000000000000, -9.299999999999997158 ) ) ;
#542 = AXIS2_PLACEMENT_3D ( 'NONE', #295, #583, #155 ) ;
#543 = DIRECTION ( 'NONE',  ( -0.000000000000000000, -1.000000000000000000, -0.000000000000000000 ) ) ;
#544 = CARTESIAN_POINT ( 'NONE',  ( 9.000000000000005329, 0.000000000000000000, 8.000000000000007105 ) ) ;
#545 = CIRCLE ( 'NONE', #420, 1.899999999999999689 ) ;
#546 = VERTEX_POINT ( 'NONE', #491 ) ;
#547 = FACE_BOUND ( 'NONE', #651, .T. ) ;
#548 = DIRECTION ( 'NONE',  ( -0.000000000000000000, -1.000000000000000000, -0.000000000000000000 ) ) ;
#549 = PLANE ( 'NONE',  #138 ) ;
#550 = CARTESIAN_POINT ( 'NONE',  ( 12.00000000000000178, 0.000000000000000000, 5.999999999999992895 ) ) ;
#551 = ADVANCED_FACE ( 'NONE', ( #740 ), #884, .F. ) ;
#552 = ORIENTED_EDGE ( 'NONE', *, *, #852, .F. ) ;
#553 = DIRECTION ( 'NONE',  ( -0.000000000000000000, -1.000000000000000000, -0.000000000000000000 ) ) ;
#554 = EDGE_CURVE ( 'NONE', #831, #953, #525, .T. ) ;
#555 = CARTESIAN_POINT ( 'NONE',  ( -2.250000000000000444, 2.000000000000000000, -6.499999999999999112 ) ) ;
#556 = DIRECTION ( 'NONE',  ( -0.000000000000000000, -1.000000000000000000, -0.000000000000000000 ) ) ;
#557 = CARTESIAN_POINT ( 'NONE',  ( -7.999999999999994671, 2.000000000000000000, 11.00000000000000355 ) ) ;
#558 = VERTEX_POINT ( 'NONE', #657 ) ;
#559 = FACE_OUTER_BOUND ( 'NONE', #478, .T. ) ;
#560 = CARTESIAN_POINT ( 'NONE',  ( 0.5000000000000004441, 4.000000000000000000, -3.870000000000000107 ) ) ;
#561 = EDGE_CURVE ( 'NONE', #219, #831, #339, .T. ) ;
#562 = CYLINDRICAL_SURFACE ( 'NONE', #679, 1.249999999999999334 ) ;
#563 = VECTOR ( 'NONE', #69, 1000.000000000000000 ) ;
#564 = VECTOR ( 'NONE', #911, 1000.000000000000000 ) ;
#565 = ORIENTED_EDGE ( 'NONE', *, *, #948, .F. ) ;
#566 = CARTESIAN_POINT ( 'NONE',  ( -2.249999999999999556, 4.000000000000000000, -0.4999999999999987232 ) ) ;
#567 = ORIENTED_EDGE ( 'NONE', *, *, #498, .F. ) ;
#568 = EDGE_CURVE ( 'NONE', #134, #863, #502, .T. ) ;
#569 = ORIENTED_EDGE ( 'NONE', *, *, #297, .F. ) ;
#570 = APPLICATION_PROTOCOL_DEFINITION ( 'draft international standard', 'automotive_design', 1998, #436 ) ;
#571 = DIRECTION ( 'NONE',  ( 0.000000000000000000, 0.000000000000000000, 1.000000000000000000 ) ) ;
#572 = ORIENTED_EDGE ( 'NONE', *, *, #645, .F. ) ;
#573 = AXIS2_PLACEMENT_3D ( 'NONE', #209, #371, #233 ) ;
#574 = EDGE_LOOP ( 'NONE', ( #673, #908, #869, #532 ) ) ;
#575 = LINE ( 'NONE', #413, #969 ) ;
#576 = CIRCLE ( 'NONE', #304, 0.9999999999999991118 ) ;
#577 = DIRECTION ( 'NONE',  ( -1.020425574104004985E-16, -0.000000000000000000, -1.000000000000000000 ) ) ;
#578 = DIRECTION ( 'NONE',  ( -0.000000000000000000, -1.000000000000000000, -0.000000000000000000 ) ) ;
#579 = CARTESIAN_POINT ( 'NONE',  ( -10.99999999999999289, 0.000000000000000000, 7.000000000000002665 ) ) ;
#580 = ORIENTED_EDGE ( 'NONE', *, *, #324, .F. ) ;
#581 = EDGE_CURVE ( 'NONE', #149, #417, #272, .T. ) ;
#582 = EDGE_LOOP ( 'NONE', ( #890, #50, #922, #246 ) ) ;
#583 = DIRECTION ( 'NONE',  ( 0.000000000000000000, 1.000000000000000000, -0.000000000000000000 ) ) ;
#584 = PRODUCT_DEFINITION_SHAPE ( 'NONE', 'NONE',  #516 ) ;
#585 = VECTOR ( 'NONE', #406, 1000.000000000000000 ) ;
#586 = ORIENTED_EDGE ( 'NONE', *, *, #655, .F. ) ;
#587 = MECHANICAL_DESIGN_GEOMETRIC_PRESENTATION_REPRESENTATION (  '', ( #354 ), #170 ) ;
#588 = CARTESIAN_POINT ( 'NONE',  ( 0.5000000000000004441, 5.000000000000000000, -3.870000000000000107 ) ) ;
#589 = AXIS2_PLACEMENT_3D ( 'NONE', #721, #271, #131 ) ;
#590 = EDGE_CURVE ( 'NONE', #863, #466, #809, .T. ) ;
#591 = EDGE_CURVE ( 'NONE', #356, #123, #846, .T. ) ;
#592 = ORIENTED_EDGE ( 'NONE', *, *, #852, .T. ) ;
#593 = CARTESIAN_POINT ( 'NONE',  ( -9.299999999999998934, 2.000000000000000000, -10.54999999999999716 ) ) ;
#594 = CIRCLE ( 'NONE', #178, 1.000000000000000888 ) ;
#595 = DIRECTION ( 'NONE',  ( -0.000000000000000000, -1.000000000000000000, -0.000000000000000000 ) ) ;
#596 = MANIFOLD_SOLID_BREP ( 'Boss-Extrude3', #150 ) ;
#597 = ADVANCED_FACE ( 'NONE', ( #955 ), #650, .F. ) ;
#598 = ORIENTED_EDGE ( 'NONE', *, *, #85, .F. ) ;
#599 = CARTESIAN_POINT ( 'NONE',  ( -11.00000000000000000, 0.000000000000000000, -11.00000000000000000 ) ) ;
#600 = CARTESIAN_POINT ( 'NONE',  ( -8.999999999999994671, 2.000000000000000000, 10.99999999999999467 ) ) ;
#601 = EDGE_LOOP ( 'NONE', ( #858, #424 ) ) ;
#602 = LINE ( 'NONE', #231, #218 ) ;
#603 = ORIENTED_EDGE ( 'NONE', *, *, #232, .T. ) ;
#604 = CARTESIAN_POINT ( 'NONE',  ( 9.299999999999998934, 2.000000000000000000, -10.54999999999999716 ) ) ;
#605 = CIRCLE ( 'NONE', #465, 1.249999999999999334 ) ;
#606 = ORIENTED_EDGE ( 'NONE', *, *, #423, .T. ) ;
#607 = CYLINDRICAL_SURFACE ( 'NONE', #709, 0.9999999999999991118 ) ;
#608 = CARTESIAN_POINT ( 'NONE',  ( 9.000000000000005329, 2.000000000000000000, 8.000000000000007105 ) ) ;
#609 = DIRECTION ( 'NONE',  ( 0.000000000000000000, 0.000000000000000000, -1.000000000000000000 ) ) ;
#610 = EDGE_CURVE ( 'NONE', #863, #455, #63, .T. ) ;
#611 = VERTEX_POINT ( 'NONE', #666 ) ;
#612 = VERTEX_POINT ( 'NONE', #456 ) ;
#613 = DIRECTION ( 'NONE',  ( 0.000000000000000000, 0.000000000000000000, -1.000000000000000000 ) ) ;
#614 = CARTESIAN_POINT ( 'NONE',  ( 10.99999999999999467, 2.000000000000000000, 7.000000000000000000 ) ) ;
#615 = DIRECTION ( 'NONE',  ( 0.000000000000000000, 1.000000000000000000, 0.000000000000000000 ) ) ;
#616 = DIRECTION ( 'NONE',  ( 1.000000000000000000, 0.000000000000000000, 0.000000000000000000 ) ) ;
#617 = ORIENTED_EDGE ( 'NONE', *, *, #324, .T. ) ;
#618 = CYLINDRICAL_SURFACE ( 'NONE', #383, 0.9999999999999991118 ) ;
#619 = DIRECTION ( 'NONE',  ( -1.000000000000000000, 0.000000000000000000, 0.000000000000000000 ) ) ;
#620 = DIRECTION ( 'NONE',  ( 0.000000000000000000, 0.000000000000000000, -1.000000000000000000 ) ) ;
#621 = CIRCLE ( 'NONE', #941, 1.000000000000000888 ) ;
#622 = DIRECTION ( 'NONE',  ( 0.000000000000000000, 0.000000000000000000, -1.000000000000000000 ) ) ;
#623 =( GEOMETRIC_REPRESENTATION_CONTEXT ( 3 ) GLOBAL_UNCERTAINTY_ASSIGNED_CONTEXT ( ( #510 ) ) GLOBAL_UNIT_ASSIGNED_CONTEXT ( ( #425, #199, #120 ) ) REPRESENTATION_CONTEXT ( 'NONE', 'WORKASPACE' ) );
#624 = VERTEX_POINT ( 'NONE', #749 ) ;
#625 = EDGE_CURVE ( 'NONE', #352, #699, #723, .T. ) ;
#626 = DIRECTION ( 'NONE',  ( -1.020425574104004985E-16, -0.000000000000000000, -1.000000000000000000 ) ) ;
#627 = DIRECTION ( 'NONE',  ( 0.000000000000000000, 0.000000000000000000, 1.000000000000000000 ) ) ;
#628 = LINE ( 'NONE', #555, #71 ) ;
#629 = DIRECTION ( 'NONE',  ( 0.000000000000000000, 0.000000000000000000, -1.000000000000000000 ) ) ;
#630 = CARTESIAN_POINT ( 'NONE',  ( -10.00000000000000178, 2.000000000000000000, 7.000000000000002665 ) ) ;
#631 = ORIENTED_EDGE ( 'NONE', *, *, #554, .T. ) ;
#632 = EDGE_CURVE ( 'NONE', #764, #171, #416, .T. ) ;
#633 = DIRECTION ( 'NONE',  ( 0.000000000000000000, 0.000000000000000000, 1.000000000000000000 ) ) ;
#634 = DIRECTION ( 'NONE',  ( -0.000000000000000000, -1.000000000000000000, -0.000000000000000000 ) ) ;
#635 = DIRECTION ( 'NONE',  ( -0.000000000000000000, -1.000000000000000000, -0.000000000000000000 ) ) ;
#636 = ORIENTED_EDGE ( 'NONE', *, *, #677, .F. ) ;
#637 = DIRECTION ( 'NONE',  ( -0.000000000000000000, -1.000000000000000000, -0.000000000000000000 ) ) ;
#638 = DIRECTION ( 'NONE',  ( -0.000000000000000000, -1.000000000000000000, -0.000000000000000000 ) ) ;
#639 = DIRECTION ( 'NONE',  ( -0.000000000000000000, -0.000000000000000000, -1.000000000000000000 ) ) ;
#640 = VECTOR ( 'NONE', #34, 1000.000000000000000 ) ;
#641 = VECTOR ( 'NONE', #577, 1000.000000000000000 ) ;
#642 = VERTEX_POINT ( 'NONE', #593 ) ;
#643 = EDGE_CURVE ( 'NONE', #949, #546, #832, .T. ) ;
#644 = CARTESIAN_POINT ( 'NONE',  ( -12.00000000000000000, 2.000000000000000000, 5.999999999999995559 ) ) ;
#645 = EDGE_CURVE ( 'NONE', #455, #675, #288, .T. ) ;
#646 = ORIENTED_EDGE ( 'NONE', *, *, #426, .F. ) ;
#647 = CARTESIAN_POINT ( 'NONE',  ( -7.999999999999994671, 2.000000000000000000, 11.00000000000000355 ) ) ;
#648 = DIRECTION ( 'NONE',  ( -0.000000000000000000, -1.000000000000000000, -0.000000000000000000 ) ) ;
#649 = EDGE_LOOP ( 'NONE', ( #472, #896, #534, #441 ) ) ;
#650 = PLANE ( 'NONE',  #682 ) ;
#651 = EDGE_LOOP ( 'NONE', ( #946, #756 ) ) ;
#652 = CIRCLE ( 'NONE', #734, 1.000000000000000888 ) ;
#653 = AXIS2_PLACEMENT_3D ( 'NONE', #684, #13, #481 ) ;
#654 = CARTESIAN_POINT ( 'NONE',  ( -8.999999999999994671, 2.000000000000000000, 10.99999999999999467 ) ) ;
#655 = EDGE_CURVE ( 'NONE', #963, #8, #602, .T. ) ;
#656 = VERTEX_POINT ( 'NONE', #659 ) ;
#657 = CARTESIAN_POINT ( 'NONE',  ( 12.00000000000000000, 2.000000000000000000, -10.99999999999999289 ) ) ;
#658 = EDGE_LOOP ( 'NONE', ( #79, #162, #143, #670 ) ) ;
#659 = CARTESIAN_POINT ( 'NONE',  ( -9.299999999999998934, 0.000000000000000000, -8.049999999999998934 ) ) ;
#660 = EDGE_LOOP ( 'NONE', ( #77, #23, #821, #28 ) ) ;
#661 = DIRECTION ( 'NONE',  ( -0.000000000000000000, -1.000000000000000000, -0.000000000000000000 ) ) ;
#662 = VECTOR ( 'NONE', #9, 1000.000000000000000 ) ;
#663 = AXIS2_PLACEMENT_3D ( 'NONE', #281, #459, #381 ) ;
#664 = ORIENTED_EDGE ( 'NONE', *, *, #36, .T. ) ;
#665 = AXIS2_PLACEMENT_3D ( 'NONE', #881, #53, #571 ) ;
#666 = CARTESIAN_POINT ( 'NONE',  ( 7.999999999999996447, 2.000000000000000000, 12.00000000000000000 ) ) ;
#667 = VECTOR ( 'NONE', #894, 1000.000000000000000 ) ;
#668 = DIRECTION ( 'NONE',  ( -1.000000000000000000, 0.000000000000000000, 1.445602896647339163E-16 ) ) ;
#669 = EDGE_CURVE ( 'NONE', #795, #933, #777, .T. ) ;
#670 = ORIENTED_EDGE ( 'NONE', *, *, #645, .T. ) ;
#671 = LINE ( 'NONE', #529, #191 ) ;
#672 = CARTESIAN_POINT ( 'NONE',  ( 9.299999999999998934, 2.000000000000000000, -10.54999999999999716 ) ) ;
#673 = ORIENTED_EDGE ( 'NONE', *, *, #7, .F. ) ;
#674 = CARTESIAN_POINT ( 'NONE',  ( 10.00000000000000355, 2.000000000000000000, 8.000000000000000000 ) ) ;
#675 = VERTEX_POINT ( 'NONE', #964 ) ;
#676 = DIRECTION ( 'NONE',  ( -1.445602896647339163E-16, 0.000000000000000000, -1.000000000000000000 ) ) ;
#677 = EDGE_CURVE ( 'NONE', #878, #344, #594, .T. ) ;
#678 = VERTEX_POINT ( 'NONE', #1 ) ;
#679 = AXIS2_PLACEMENT_3D ( 'NONE', #477, #635, #622 ) ;
#680 = EDGE_CURVE ( 'NONE', #699, #352, #293, .T. ) ;
#681 = CARTESIAN_POINT ( 'NONE',  ( 10.99999999999999467, 2.000000000000000000, 7.000000000000000000 ) ) ;
#682 = AXIS2_PLACEMENT_3D ( 'NONE', #195, #211, #158 ) ;
#683 = ORIENTED_EDGE ( 'NONE', *, *, #198, .F. ) ;
#684 = CARTESIAN_POINT ( 'NONE',  ( 11.00000000000000178, 2.000000000000000000, -11.00000000000000000 ) ) ;
#685 = FACE_OUTER_BOUND ( 'NONE', #197, .T. ) ;
#686 = EDGE_LOOP ( 'NONE', ( #336, #664, #799, #580 ) ) ;
#687 = ORIENTED_EDGE ( 'NONE', *, *, #581, .T. ) ;
#688 = ORIENTED_EDGE ( 'NONE', *, *, #677, .T. ) ;
#689 = LINE ( 'NONE', #107, #367 ) ;
#690 = LINE ( 'NONE', #32, #564 ) ;
#691 = CARTESIAN_POINT ( 'NONE',  ( 3.750000000000000000, 4.000000000000000000, -6.499999999999999112 ) ) ;
#692 = FACE_BOUND ( 'NONE', #140, .T. ) ;
#693 = ORIENTED_EDGE ( 'NONE', *, *, #731, .T. ) ;
#694 = DIRECTION ( 'NONE',  ( 0.000000000000000000, 1.000000000000000000, 0.000000000000000000 ) ) ;
#695 = LINE ( 'NONE', #19, #814 ) ;
#696 = CARTESIAN_POINT ( 'NONE',  ( 3.750000000000000888, 2.000000000000000000, -0.4999999999999987232 ) ) ;
#697 = FACE_OUTER_BOUND ( 'NONE', #720, .T. ) ;
#698 = EDGE_CURVE ( 'NONE', #275, #4, #118, .T. ) ;
#699 = VERTEX_POINT ( 'NONE', #522 ) ;
#700 = DIRECTION ( 'NONE',  ( 0.000000000000000000, 1.000000000000000000, -0.000000000000000000 ) ) ;
#701 = PLANE ( 'NONE',  #497 ) ;
#702 = CARTESIAN_POINT ( 'NONE',  ( 12.00000000000000000, 0.000000000000000000, -10.99999999999999289 ) ) ;
#703 = VECTOR ( 'NONE', #578, 1000.000000000000000 ) ;
#704 = CARTESIAN_POINT ( 'NONE',  ( -10.99999999999999289, 2.000000000000000000, -11.99999999999999822 ) ) ;
#705 = ORIENTED_EDGE ( 'NONE', *, *, #524, .F. ) ;
#706 = VECTOR ( 'NONE', #505, 1000.000000000000000 ) ;
#707 = VECTOR ( 'NONE', #519, 1000.000000000000000 ) ;
#708 = ADVANCED_FACE ( 'NONE', ( #65 ), #374, .F. ) ;
#709 = AXIS2_PLACEMENT_3D ( 'NONE', #247, #761, #18 ) ;
#710 = ORIENTED_EDGE ( 'NONE', *, *, #498, .T. ) ;
#711 = DIRECTION ( 'NONE',  ( -0.000000000000000000, -1.000000000000000000, -0.000000000000000000 ) ) ;
#712 = DIRECTION ( 'NONE',  ( -0.000000000000000000, -1.000000000000000000, -0.000000000000000000 ) ) ;
#713 = CARTESIAN_POINT ( 'NONE',  ( -10.00000000000000178, 0.000000000000000000, 7.000000000000002665 ) ) ;
#714 = CARTESIAN_POINT ( 'NONE',  ( 9.299999999999998934, 0.000000000000000000, -8.049999999999998934 ) ) ;
#715 = ORIENTED_EDGE ( 'NONE', *, *, #625, .F. ) ;
#716 = FACE_OUTER_BOUND ( 'NONE', #127, .T. ) ;
#717 = CARTESIAN_POINT ( 'NONE',  ( -9.299999999999998934, 2.000000000000000000, -8.049999999999998934 ) ) ;
#718 = CARTESIAN_POINT ( 'NONE',  ( 10.00000000000000355, 0.000000000000000000, 8.000000000000000000 ) ) ;
#719 = EDGE_CURVE ( 'NONE', #893, #612, #205, .T. ) ;
#720 = EDGE_LOOP ( 'NONE', ( #812, #384, #636, #16, #282, #80, #520, #598, #331, #305, #567, #377, #910, #119, #153, #552 ) ) ;
#721 = CARTESIAN_POINT ( 'NONE',  ( 0.000000000000000000, 0.000000000000000000, 0.000000000000000000 ) ) ;
#722 = ADVANCED_FACE ( 'NONE', ( #827 ), #369, .F. ) ;
#723 = CIRCLE ( 'NONE', #843, 1.899999999999999689 ) ;
#724 = AXIS2_PLACEMENT_3D ( 'NONE', #763, #668, #882 ) ;
#725 = AXIS2_PLACEMENT_3D ( 'NONE', #243, #556, #629 ) ;
#726 = ORIENTED_EDGE ( 'NONE', *, *, #904, .F. ) ;
#727 = CARTESIAN_POINT ( 'NONE',  ( -2.250000000000000444, 4.000000000000000000, -6.499999999999999112 ) ) ;
#728 = CARTESIAN_POINT ( 'NONE',  ( -9.299999999999998934, 2.000000000000000000, -10.54999999999999716 ) ) ;
#729 = ORIENTED_EDGE ( 'NONE', *, *, #36, .F. ) ;
#730 = CARTESIAN_POINT ( 'NONE',  ( -11.00000000000000178, 0.000000000000000000, 6.000000000000002665 ) ) ;
#731 = EDGE_CURVE ( 'NONE', #893, #905, #902, .T. ) ;
#732 = CARTESIAN_POINT ( 'NONE',  ( -2.250000000000000444, 2.000000000000000000, -6.499999999999999112 ) ) ;
#733 = CARTESIAN_POINT ( 'NONE',  ( -9.299999999999998934, 2.000000000000000000, -9.299999999999997158 ) ) ;
#734 = AXIS2_PLACEMENT_3D ( 'NONE', #718, #537, #244 ) ;
#735 = ORIENTED_EDGE ( 'NONE', *, *, #347, .T. ) ;
#736 = CIRCLE ( 'NONE', #653, 1.000000000000000888 ) ;
#737 = EDGE_CURVE ( 'NONE', #134, #678, #745, .T. ) ;
#738 = ORIENTED_EDGE ( 'NONE', *, *, #393, .T. ) ;
#739 = CIRCLE ( 'NONE', #280, 1.249999999999999334 ) ;
#740 = FACE_OUTER_BOUND ( 'NONE', #649, .T. ) ;
#741 = LINE ( 'NONE', #414, #323 ) ;
#742 = ORIENTED_EDGE ( 'NONE', *, *, #17, .T. ) ;
#743 = DIRECTION ( 'NONE',  ( 0.000000000000000000, 0.000000000000000000, 1.000000000000000000 ) ) ;
#744 = ORIENTED_EDGE ( 'NONE', *, *, #283, .T. ) ;
#745 = LINE ( 'NONE', #67, #667 ) ;
#746 = EDGE_CURVE ( 'NONE', #490, #878, #220, .T. ) ;
#747 = VERTEX_POINT ( 'NONE', #74 ) ;
#748 = AXIS2_PLACEMENT_3D ( 'NONE', #110, #25, #916 ) ;
#749 = CARTESIAN_POINT ( 'NONE',  ( 7.999999999999996447, 0.000000000000000000, 12.00000000000000000 ) ) ;
#750 = AXIS2_PLACEMENT_3D ( 'NONE', #654, #52, #43 ) ;
#751 = EDGE_LOOP ( 'NONE', ( #968, #216, #135, #373 ) ) ;
#752 = CARTESIAN_POINT ( 'NONE',  ( 9.299999999999998934, 0.000000000000000000, -9.299999999999997158 ) ) ;
#753 = ORIENTED_EDGE ( 'NONE', *, *, #361, .F. ) ;
#754 = ORIENTED_EDGE ( 'NONE', *, *, #372, .T. ) ;
#755 = DIRECTION ( 'NONE',  ( 0.000000000000000000, 1.000000000000000000, 0.000000000000000000 ) ) ;
#756 = ORIENTED_EDGE ( 'NONE', *, *, #591, .F. ) ;
#757 = APPLICATION_CONTEXT ( 'automotive_design' ) ;
#758 = LINE ( 'NONE', #604, #418 ) ;
#759 = EDGE_CURVE ( 'NONE', #933, #149, #671, .T. ) ;
#760 = ORIENTED_EDGE ( 'NONE', *, *, #961, .T. ) ;
#761 = DIRECTION ( 'NONE',  ( -0.000000000000000000, -1.000000000000000000, -0.000000000000000000 ) ) ;
#762 = FACE_BOUND ( 'NONE', #920, .T. ) ;
#763 = CARTESIAN_POINT ( 'NONE',  ( 3.750000000000000000, 4.000000000000000000, -6.499999999999999112 ) ) ;
#764 = VERTEX_POINT ( 'NONE', #184 ) ;
#765 = LINE ( 'NONE', #306, #903 ) ;
#766 = VECTOR ( 'NONE', #767, 1000.000000000000000 ) ;
#767 = DIRECTION ( 'NONE',  ( -0.000000000000000000, -0.000000000000000000, 1.000000000000000000 ) ) ;
#768 = DIRECTION ( 'NONE',  ( 0.000000000000000000, 0.000000000000000000, -1.000000000000000000 ) ) ;
#769 = FACE_OUTER_BOUND ( 'NONE', #93, .T. ) ;
#770 = VECTOR ( 'NONE', #553, 1000.000000000000000 ) ;
#771 = VERTEX_POINT ( 'NONE', #99 ) ;
#772 = EDGE_LOOP ( 'NONE', ( #433, #683, #586, #805 ) ) ;
#773 = CARTESIAN_POINT ( 'NONE',  ( -2.250000000000000444, 4.000000000000000000, -6.499999999999999112 ) ) ;
#774 = ADVANCED_FACE ( 'NONE', ( #81 ), #12, .T. ) ;
#775 = CARTESIAN_POINT ( 'NONE',  ( 0.5000000000000004441, 5.000000000000000000, -3.870000000000000107 ) ) ;
#776 = DIRECTION ( 'NONE',  ( -1.000000000000000000, 0.000000000000000000, 1.084202172485505667E-16 ) ) ;
#777 = CIRCLE ( 'NONE', #54, 0.9999999999999991118 ) ;
#778 = DIRECTION ( 'NONE',  ( 0.000000000000000000, -0.000000000000000000, -1.000000000000000000 ) ) ;
#779 = ORIENTED_EDGE ( 'NONE', *, *, #737, .F. ) ;
#780 = DIRECTION ( 'NONE',  ( -0.000000000000000000, -1.000000000000000000, -0.000000000000000000 ) ) ;
#781 = FACE_OUTER_BOUND ( 'NONE', #474, .T. ) ;
#782 = EDGE_CURVE ( 'NONE', #611, #624, #915, .T. ) ;
#783 = EDGE_LOOP ( 'NONE', ( #55, #779, #45, #504 ) ) ;
#784 = DIRECTION ( 'NONE',  ( 7.885106708985492732E-17, -0.000000000000000000, 1.000000000000000000 ) ) ;
#785 = CARTESIAN_POINT ( 'NONE',  ( -10.00000000000000178, 2.000000000000000000, 7.000000000000002665 ) ) ;
#786 = DIRECTION ( 'NONE',  ( 0.000000000000000000, 0.000000000000000000, 1.000000000000000000 ) ) ;
#787 = LINE ( 'NONE', #112, #585 ) ;
#788 = VECTOR ( 'NONE', #960, 1000.000000000000000 ) ;
#789 = CIRCLE ( 'NONE', #816, 1.249999999999999334 ) ;
#790 = ORIENTED_EDGE ( 'NONE', *, *, #961, .F. ) ;
#791 = CARTESIAN_POINT ( 'NONE',  ( -9.299999999999998934, 0.000000000000000000, -10.54999999999999716 ) ) ;
#792 = DIRECTION ( 'NONE',  ( 1.000000000000000000, -0.000000000000000000, -1.084202172485505543E-16 ) ) ;
#793 = DIRECTION ( 'NONE',  ( 0.000000000000000000, 1.000000000000000000, 0.000000000000000000 ) ) ;
#794 = EDGE_CURVE ( 'NONE', #939, #656, #789, .T. ) ;
#795 = VERTEX_POINT ( 'NONE', #681 ) ;
#796 = EDGE_CURVE ( 'NONE', #495, #294, #765, .T. ) ;
#797 = APPLICATION_PROTOCOL_DEFINITION ( 'draft international standard', 'automotive_design', 1998, #757 ) ;
#798 = SURFACE_STYLE_FILL_AREA ( #57 ) ;
#799 = ORIENTED_EDGE ( 'NONE', *, *, #591, .T. ) ;
#800 = PLANE ( 'NONE',  #750 ) ;
#801 = LINE ( 'NONE', #728, #923 ) ;
#802 = PRODUCT ( 'Pa5100je', 'Pa5100je', '', ( #428 ) ) ;
#803 = VECTOR ( 'NONE', #322, 1000.000000000000000 ) ;
#804 = AXIS2_PLACEMENT_3D ( 'NONE', #848, #387, #768 ) ;
#805 = ORIENTED_EDGE ( 'NONE', *, *, #124, .T. ) ;
#806 = EDGE_CURVE ( 'NONE', #236, #177, #605, .T. ) ;
#807 = LINE ( 'NONE', #544, #844 ) ;
#808 = DIRECTION ( 'NONE',  ( 1.445602896647339163E-16, 0.000000000000000000, 1.000000000000000000 ) ) ;
#809 = LINE ( 'NONE', #871, #788 ) ;
#810 = ADVANCED_FACE ( 'NONE', ( #533 ), #607, .F. ) ;
#811 = FACE_OUTER_BOUND ( 'NONE', #783, .T. ) ;
#812 = ORIENTED_EDGE ( 'NONE', *, *, #554, .F. ) ;
#813 = DIRECTION ( 'NONE',  ( 0.000000000000000000, 0.000000000000000000, -1.000000000000000000 ) ) ;
#814 = VECTOR ( 'NONE', #548, 1000.000000000000000 ) ;
#815 = VERTEX_POINT ( 'NONE', #319 ) ;
#816 = AXIS2_PLACEMENT_3D ( 'NONE', #378, #461, #633 ) ;
#817 = DIRECTION ( 'NONE',  ( 0.000000000000000000, 0.000000000000000000, -1.000000000000000000 ) ) ;
#818 = ADVANCED_FACE ( 'NONE', ( #559 ), #618, .T. ) ;
#819 = EDGE_LOOP ( 'NONE', ( #517, #51, #58, #693 ) ) ;
#820 = DIRECTION ( 'NONE',  ( 0.000000000000000000, 1.000000000000000000, -0.000000000000000000 ) ) ;
#821 = ORIENTED_EDGE ( 'NONE', *, *, #568, .F. ) ;
#822 = DIRECTION ( 'NONE',  ( -0.000000000000000000, -1.000000000000000000, -0.000000000000000000 ) ) ;
#823 = ORIENTED_EDGE ( 'NONE', *, *, #796, .T. ) ;
#824 = VECTOR ( 'NONE', #310, 1000.000000000000000 ) ;
#825 = ORIENTED_EDGE ( 'NONE', *, *, #806, .T. ) ;
#826 = VECTOR ( 'NONE', #265, 1000.000000000000000 ) ;
#827 = FACE_OUTER_BOUND ( 'NONE', #513, .T. ) ;
#828 = VECTOR ( 'NONE', #808, 1000.000000000000000 ) ;
#829 = EDGE_CURVE ( 'NONE', #455, #318, #468, .T. ) ;
#830 = LINE ( 'NONE', #503, #824 ) ;
#831 = VERTEX_POINT ( 'NONE', #30 ) ;
#832 = LINE ( 'NONE', #452, #70 ) ;
#833 = ORIENTED_EDGE ( 'NONE', *, *, #161, .T. ) ;
#834 = CARTESIAN_POINT ( 'NONE',  ( 10.00000000000001243, 0.000000000000000000, 7.000000000000000000 ) ) ;
#835 = ORIENTED_EDGE ( 'NONE', *, *, #426, .T. ) ;
#836 = ORIENTED_EDGE ( 'NONE', *, *, #794, .T. ) ;
#837 = DIRECTION ( 'NONE',  ( -0.000000000000000000, -1.000000000000000000, -0.000000000000000000 ) ) ;
#838 = ORIENTED_EDGE ( 'NONE', *, *, #273, .T. ) ;
#839 = CARTESIAN_POINT ( 'NONE',  ( 0.5000000000000004441, 5.000000000000000000, -5.770000000000000462 ) ) ;
#840 = CARTESIAN_POINT ( 'NONE',  ( 9.299999999999998934, 2.000000000000000000, -9.299999999999997158 ) ) ;
#841 = CARTESIAN_POINT ( 'NONE',  ( 9.299999999999998934, 0.000000000000000000, -10.54999999999999716 ) ) ;
#842 = ORIENTED_EDGE ( 'NONE', *, *, #904, .T. ) ;
#843 = AXIS2_PLACEMENT_3D ( 'NONE', #300, #755, #360 ) ;
#844 = VECTOR ( 'NONE', #639, 1000.000000000000000 ) ;
#845 = CARTESIAN_POINT ( 'NONE',  ( 9.299999999999998934, 0.000000000000000000, -9.299999999999997158 ) ) ;
#846 = CIRCLE ( 'NONE', #665, 1.899999999999999689 ) ;
#847 = DIRECTION ( 'NONE',  ( 1.445602896647339163E-16, 0.000000000000000000, 1.000000000000000000 ) ) ;
#848 = CARTESIAN_POINT ( 'NONE',  ( -9.299999999999998934, 2.000000000000000000, -9.299999999999997158 ) ) ;
#849 = DIRECTION ( 'NONE',  ( -0.000000000000000000, -1.000000000000000000, -0.000000000000000000 ) ) ;
#850 = EDGE_CURVE ( 'NONE', #642, #395, #739, .T. ) ;
#851 = ORIENTED_EDGE ( 'NONE', *, *, #85, .T. ) ;
#852 = EDGE_CURVE ( 'NONE', #953, #453, #909, .T. ) ;
#853 = CARTESIAN_POINT ( 'NONE',  ( -9.299999999999998934, 2.000000000000000000, -9.299999999999997158 ) ) ;
#854 = EDGE_LOOP ( 'NONE', ( #688, #301, #108, #248 ) ) ;
#855 = FACE_OUTER_BOUND ( 'NONE', #660, .T. ) ;
#856 = CARTESIAN_POINT ( 'NONE',  ( 11.00000000000000178, 0.000000000000000000, -11.00000000000000000 ) ) ;
#857 = DIRECTION ( 'NONE',  ( 0.000000000000000000, 0.000000000000000000, -1.000000000000000000 ) ) ;
#858 = ORIENTED_EDGE ( 'NONE', *, *, #625, .T. ) ;
#859 = CARTESIAN_POINT ( 'NONE',  ( -10.99999999999999289, 2.000000000000000000, -11.99999999999999822 ) ) ;
#860 = DIRECTION ( 'NONE',  ( -1.000000000000000000, 0.000000000000000000, -0.000000000000000000 ) ) ;
#861 = LINE ( 'NONE', #398, #303 ) ;
#862 = CARTESIAN_POINT ( 'NONE',  ( -7.999999999999986677, 0.000000000000000000, 12.00000000000000178 ) ) ;
#863 = VERTEX_POINT ( 'NONE', #89 ) ;
#864 = DIRECTION ( 'NONE',  ( 0.000000000000000000, 0.000000000000000000, 1.000000000000000000 ) ) ;
#865 = DIRECTION ( 'NONE',  ( 0.000000000000000000, 0.000000000000000000, -1.000000000000000000 ) ) ;
#866 = AXIS2_PLACEMENT_3D ( 'NONE', #405, #392, #536 ) ;
#867 = CARTESIAN_POINT ( 'NONE',  ( -12.00000000000000000, 2.000000000000000000, 5.999999999999995559 ) ) ;
#868 = AXIS2_PLACEMENT_3D ( 'NONE', #940, #128, #337 ) ;
#869 = ORIENTED_EDGE ( 'NONE', *, *, #350, .F. ) ;
#870 = DIRECTION ( 'NONE',  ( 0.000000000000000000, 1.000000000000000000, -0.000000000000000000 ) ) ;
#871 = CARTESIAN_POINT ( 'NONE',  ( 3.750000000000000888, 4.000000000000000000, -0.4999999999999987232 ) ) ;
#872 = ORIENTED_EDGE ( 'NONE', *, *, #266, .T. ) ;
#873 = ORIENTED_EDGE ( 'NONE', *, *, #232, .F. ) ;
#874 = EDGE_CURVE ( 'NONE', #933, #558, #689, .T. ) ;
#875 = PRESENTATION_STYLE_ASSIGNMENT (( #415 ) ) ;
#876 = CIRCLE ( 'NONE', #446, 1.249999999999999334 ) ;
#877 = AXIS2_PLACEMENT_3D ( 'NONE', #26, #634, #937 ) ;
#878 = VERTEX_POINT ( 'NONE', #313 ) ;
#879 = CARTESIAN_POINT ( 'NONE',  ( 12.00000000000000178, 2.000000000000000000, 5.999999999999992895 ) ) ;
#880 = ADVANCED_FACE ( 'NONE', ( #540 ), #94, .F. ) ;
#881 = CARTESIAN_POINT ( 'NONE',  ( 0.5000000000000004441, 4.000000000000000000, -3.870000000000000107 ) ) ;
#882 = DIRECTION ( 'NONE',  ( 1.445602896647339163E-16, 0.000000000000000000, 1.000000000000000000 ) ) ;
#883 = ORIENTED_EDGE ( 'NONE', *, *, #610, .F. ) ;
#884 = CYLINDRICAL_SURFACE ( 'NONE', #151, 1.249999999999999334 ) ;
#885 = ORIENTED_EDGE ( 'NONE', *, *, #297, .T. ) ;
#886 = DIRECTION ( 'NONE',  ( 0.000000000000000000, 1.000000000000000000, -0.000000000000000000 ) ) ;
#887 = VECTOR ( 'NONE', #335, 1000.000000000000000 ) ;
#888 = ADVANCED_FACE ( 'NONE', ( #547, #929 ), #390, .T. ) ;
#889 = VECTOR ( 'NONE', #530, 1000.000000000000000 ) ;
#890 = ORIENTED_EDGE ( 'NONE', *, *, #610, .T. ) ;
#891 = AXIS2_PLACEMENT_3D ( 'NONE', #291, #141, #440 ) ;
#892 = DIRECTION ( 'NONE',  ( -0.000000000000000000, -1.000000000000000000, -0.000000000000000000 ) ) ;
#893 = VERTEX_POINT ( 'NONE', #179 ) ;
#894 = DIRECTION ( 'NONE',  ( -0.000000000000000000, -1.000000000000000000, -0.000000000000000000 ) ) ;
#895 = LINE ( 'NONE', #500, #956 ) ;
#896 = ORIENTED_EDGE ( 'NONE', *, *, #253, .T. ) ;
#897 = ADVANCED_FACE ( 'NONE', ( #473 ), #254, .T. ) ;
#898 = DIRECTION ( 'NONE',  ( 1.000000000000000000, -0.000000000000000000, 0.000000000000000000 ) ) ;
#899 = FACE_OUTER_BOUND ( 'NONE', #900, .T. ) ;
#900 = EDGE_LOOP ( 'NONE', ( #631, #646, #790, #487 ) ) ;
#901 = PRESENTATION_LAYER_ASSIGNMENT (  '', '', ( #354 ) ) ;
#902 = LINE ( 'NONE', #145, #342 ) ;
#903 = VECTOR ( 'NONE', #385, 1000.000000000000000 ) ;
#904 = EDGE_CURVE ( 'NONE', #41, #764, #575, .T. ) ;
#905 = VERTEX_POINT ( 'NONE', #207 ) ;
#906 = CARTESIAN_POINT ( 'NONE',  ( 10.99999999999999467, 2.000000000000000000, 7.000000000000000000 ) ) ;
#907 = DIRECTION ( 'NONE',  ( -1.445602896647339163E-16, -0.000000000000000000, -1.000000000000000000 ) ) ;
#908 = ORIENTED_EDGE ( 'NONE', *, *, #196, .F. ) ;
#909 = LINE ( 'NONE', #235, #421 ) ;
#910 = ORIENTED_EDGE ( 'NONE', *, *, #632, .F. ) ;
#911 = DIRECTION ( 'NONE',  ( -0.000000000000000000, -0.000000000000000000, 1.000000000000000000 ) ) ;
#912 = DIRECTION ( 'NONE',  ( -1.084202172485505667E-16, 0.000000000000000000, -1.000000000000000000 ) ) ;
#913 = PLANE ( 'NONE',  #400 ) ;
#914 = ORIENTED_EDGE ( 'NONE', *, *, #273, .F. ) ;
#915 = LINE ( 'NONE', #172, #770 ) ;
#916 = DIRECTION ( 'NONE',  ( 0.000000000000000000, -0.000000000000000000, -1.000000000000000000 ) ) ;
#917 = CARTESIAN_POINT ( 'NONE',  ( -12.00000000000000000, 2.000000000000000000, 5.999999999999995559 ) ) ;
#918 = DIRECTION ( 'NONE',  ( 0.000000000000000000, 1.000000000000000000, -0.000000000000000000 ) ) ;
#919 = EDGE_CURVE ( 'NONE', #318, #134, #954, .T. ) ;
#920 = EDGE_LOOP ( 'NONE', ( #340, #201 ) ) ;
#921 = CARTESIAN_POINT ( 'NONE',  ( 0.000000000000000000, 4.000000000000000000, 0.000000000000000000 ) ) ;
#922 = ORIENTED_EDGE ( 'NONE', *, *, #919, .T. ) ;
#923 = VECTOR ( 'NONE', #132, 1000.000000000000000 ) ;
#924 = DIRECTION ( 'NONE',  ( 0.000000000000000000, -0.000000000000000000, 1.000000000000000000 ) ) ;
#925 = CARTESIAN_POINT ( 'NONE',  ( 10.99999999999999289, 0.000000000000000000, -12.00000000000000000 ) ) ;
#926 = LINE ( 'NONE', #188, #508 ) ;
#927 = VECTOR ( 'NONE', #241, 1000.000000000000000 ) ;
#928 = ORIENTED_EDGE ( 'NONE', *, *, #253, .F. ) ;
#929 = FACE_OUTER_BOUND ( 'NONE', #582, .T. ) ;
#930 = CARTESIAN_POINT ( 'NONE',  ( -12.00000000000000000, 0.000000000000000000, 5.999999999999995559 ) ) ;
#931 = CARTESIAN_POINT ( 'NONE',  ( 9.299999999999998934, 2.000000000000000000, -8.049999999999998934 ) ) ;
#932 = DIRECTION ( 'NONE',  ( -0.000000000000000000, -1.000000000000000000, -0.000000000000000000 ) ) ;
#933 = VERTEX_POINT ( 'NONE', #879 ) ;
#934 = DIRECTION ( 'NONE',  ( 1.000000000000000000, -0.000000000000000000, -0.000000000000000000 ) ) ;
#935 = EDGE_CURVE ( 'NONE', #41, #815, #576, .T. ) ;
#936 = FACE_OUTER_BOUND ( 'NONE', #368, .T. ) ;
#937 = DIRECTION ( 'NONE',  ( 0.000000000000000000, 0.000000000000000000, -1.000000000000000000 ) ) ;
#938 = FACE_OUTER_BOUND ( 'NONE', #359, .T. ) ;
#939 = VERTEX_POINT ( 'NONE', #791 ) ;
#940 = CARTESIAN_POINT ( 'NONE',  ( -11.00000000000000178, 2.000000000000000000, 6.000000000000002665 ) ) ;
#941 = AXIS2_PLACEMENT_3D ( 'NONE', #463, #918, #857 ) ;
#942 = ADVANCED_BREP_SHAPE_REPRESENTATION ( 'Pa5100je', ( #596, #589 ), #623 ) ;
#943 = CARTESIAN_POINT ( 'NONE',  ( 12.00000000000000000, 0.000000000000000000, -10.99999999999999289 ) ) ;
#944 = AXIS2_PLACEMENT_3D ( 'NONE', #181, #116, #488 ) ;
#945 = AXIS2_PLACEMENT_3D ( 'NONE', #115, #870, #351 ) ;
#946 = ORIENTED_EDGE ( 'NONE', *, *, #408, .F. ) ;
#947 = PRODUCT_RELATED_PRODUCT_CATEGORY ( 'part', '', ( #802 ) ) ;
#948 = EDGE_CURVE ( 'NONE', #611, #949, #355, .T. ) ;
#949 = VERTEX_POINT ( 'NONE', #409 ) ;
#950 = LINE ( 'NONE', #200, #706 ) ;
#951 = ORIENTED_EDGE ( 'NONE', *, *, #538, .F. ) ;
#952 = ADVANCED_FACE ( 'NONE', ( #716 ), #800, .F. ) ;
#953 = VERTEX_POINT ( 'NONE', #579 ) ;
#954 = LINE ( 'NONE', #727, #828 ) ;
#955 = FACE_OUTER_BOUND ( 'NONE', #658, .T. ) ;
#956 = VECTOR ( 'NONE', #221, 1000.000000000000000 ) ;
#957 = CARTESIAN_POINT ( 'NONE',  ( 3.750000000000000000, 2.000000000000000000, -6.499999999999999112 ) ) ;
#958 = CARTESIAN_POINT ( 'NONE',  ( 10.99999999999999289, 2.000000000000000000, -12.00000000000000000 ) ) ;
#959 = ORIENTED_EDGE ( 'NONE', *, *, #850, .F. ) ;
#960 = DIRECTION ( 'NONE',  ( -0.000000000000000000, -1.000000000000000000, -0.000000000000000000 ) ) ;
#961 = EDGE_CURVE ( 'NONE', #219, #159, #139, .T. ) ;
#962 = AXIS2_PLACEMENT_3D ( 'NONE', #588, #512, #286 ) ;
#963 = VERTEX_POINT ( 'NONE', #958 ) ;
#964 = CARTESIAN_POINT ( 'NONE',  ( 3.750000000000000000, 2.000000000000000000, -6.499999999999998224 ) ) ;
#965 = ORIENTED_EDGE ( 'NONE', *, *, #590, .T. ) ;
#966 = DIRECTION ( 'NONE',  ( 0.000000000000000000, 1.000000000000000000, -0.000000000000000000 ) ) ;
#967 = VECTOR ( 'NONE', #638, 1000.000000000000000 ) ;
#968 = ORIENTED_EDGE ( 'NONE', *, *, #467, .T. ) ;
#969 = VECTOR ( 'NONE', #637, 1000.000000000000000 ) ;
ENDSEC;
END-ISO-10303-21;
